<?xml version="1.0" encoding="UTF-8"?>
<svg id="Layer_1" data-name="Layer 1" xmlns="http://www.w3.org/2000/svg" width="957.6" height="525.6" version="1.1" xmlns:xlink="http://www.w3.org/1999/xlink" viewBox="0 0 957.6 525.6">
  <defs>
    <style>
      .cls-1 {
        fill: url(#linear-gradient-38);
      }

      .cls-1, .cls-2, .cls-3, .cls-4, .cls-5, .cls-6, .cls-7, .cls-8, .cls-9, .cls-10, .cls-11, .cls-12, .cls-13, .cls-14, .cls-15, .cls-16, .cls-17, .cls-18, .cls-19, .cls-20, .cls-21, .cls-22, .cls-23, .cls-24, .cls-25, .cls-26, .cls-27, .cls-28, .cls-29, .cls-30, .cls-31, .cls-32, .cls-33, .cls-34, .cls-35, .cls-36, .cls-37, .cls-38, .cls-39, .cls-40, .cls-41, .cls-42, .cls-43, .cls-44, .cls-45, .cls-46, .cls-47, .cls-48, .cls-49, .cls-50, .cls-51, .cls-52, .cls-53, .cls-54, .cls-55, .cls-56, .cls-57, .cls-58, .cls-59, .cls-60, .cls-61, .cls-62, .cls-63, .cls-64, .cls-65, .cls-66, .cls-67, .cls-68, .cls-69, .cls-70, .cls-71, .cls-72, .cls-73, .cls-74, .cls-75, .cls-76, .cls-77, .cls-78, .cls-79, .cls-80, .cls-81, .cls-82, .cls-83, .cls-84 {
        stroke-width: 0px;
      }

      .cls-2 {
        fill: url(#linear-gradient-12);
      }

      .cls-3 {
        fill: url(#linear-gradient-17);
      }

      .cls-4 {
        fill: url(#linear-gradient-19);
      }

      .cls-5 {
        fill: url(#linear-gradient-33);
      }

      .cls-6 {
        fill: url(#linear-gradient);
      }

      .cls-7 {
        fill: url(#linear-gradient-62);
      }

      .cls-8 {
        fill: url(#linear-gradient-67);
      }

      .cls-9 {
        fill: url(#linear-gradient-57);
      }

      .cls-10 {
        fill: url(#linear-gradient-21);
      }

      .cls-11 {
        fill: url(#linear-gradient-6);
      }

      .cls-12 {
        fill: url(#linear-gradient-76);
      }

      .cls-13 {
        fill: url(#linear-gradient-42);
      }

      .cls-14 {
        fill: url(#linear-gradient-15);
      }

      .cls-15 {
        fill: url(#linear-gradient-11);
      }

      .cls-16 {
        fill: url(#linear-gradient-81);
      }

      .cls-17 {
        fill: url(#linear-gradient-73);
      }

      .cls-18 {
        fill: url(#linear-gradient-5);
      }

      .cls-19 {
        fill: url(#linear-gradient-31);
      }

      .cls-20 {
        fill: url(#linear-gradient-71);
      }

      .cls-21 {
        fill: url(#linear-gradient-58);
      }

      .cls-22 {
        fill: url(#linear-gradient-63);
      }

      .cls-23 {
        fill: url(#linear-gradient-34);
      }

      .cls-24 {
        fill: url(#linear-gradient-41);
      }

      .cls-25 {
        fill: url(#linear-gradient-40);
      }

      .cls-26 {
        fill: url(#linear-gradient-66);
      }

      .cls-27 {
        fill: url(#linear-gradient-13);
      }

      .cls-28 {
        fill: url(#linear-gradient-23);
      }

      .cls-29 {
        fill: url(#linear-gradient-25);
      }

      .cls-30 {
        fill: url(#linear-gradient-43);
      }

      .cls-31 {
        fill: url(#linear-gradient-16);
      }

      .cls-32 {
        fill: url(#linear-gradient-22);
      }

      .cls-33 {
        fill: url(#linear-gradient-54);
      }

      .cls-34 {
        fill: url(#linear-gradient-55);
      }

      .cls-35 {
        fill: url(#linear-gradient-35);
      }

      .cls-36 {
        fill: url(#linear-gradient-50);
      }

      .cls-37 {
        fill: url(#linear-gradient-32);
      }

      .cls-38 {
        fill: url(#linear-gradient-60);
      }

      .cls-39 {
        fill: url(#linear-gradient-59);
      }

      .cls-40 {
        fill: url(#linear-gradient-20);
      }

      .cls-41 {
        fill: url(#linear-gradient-14);
      }

      .cls-42 {
        fill: url(#linear-gradient-2);
      }

      .cls-43 {
        fill: url(#linear-gradient-52);
      }

      .cls-44 {
        fill: url(#linear-gradient-45);
      }

      .cls-45 {
        fill: url(#linear-gradient-7);
      }

      .cls-46 {
        fill: url(#linear-gradient-39);
      }

      .cls-47 {
        fill: url(#linear-gradient-3);
      }

      .cls-48 {
        fill: url(#linear-gradient-77);
      }

      .cls-49 {
        fill: url(#linear-gradient-69);
      }

      .cls-50 {
        fill: url(#linear-gradient-9);
      }

      .cls-51 {
        fill: url(#linear-gradient-27);
      }

      .cls-52 {
        fill: url(#linear-gradient-82);
      }

      .cls-53 {
        fill: url(#linear-gradient-83);
      }

      .cls-54 {
        fill: url(#linear-gradient-53);
      }

      .cls-55 {
        fill: url(#linear-gradient-65);
      }

      .cls-56 {
        fill: url(#linear-gradient-36);
      }

      .cls-57 {
        fill: url(#linear-gradient-48);
      }

      .cls-58 {
        fill: url(#linear-gradient-49);
      }

      .cls-59 {
        fill: url(#linear-gradient-8);
      }

      .cls-60 {
        fill: url(#linear-gradient-47);
      }

      .cls-61 {
        fill: url(#linear-gradient-24);
      }

      .cls-62 {
        fill: url(#linear-gradient-26);
      }

      .cls-63 {
        fill: url(#linear-gradient-61);
      }

      .cls-64 {
        fill: url(#linear-gradient-18);
      }

      .cls-65 {
        fill: url(#linear-gradient-51);
      }

      .cls-66 {
        fill: url(#linear-gradient-30);
      }

      .cls-67 {
        fill: url(#linear-gradient-44);
      }

      .cls-68 {
        fill: url(#linear-gradient-84);
      }

      .cls-69 {
        fill: url(#linear-gradient-68);
      }

      .cls-70 {
        fill: url(#linear-gradient-72);
      }

      .cls-71 {
        fill: url(#linear-gradient-29);
      }

      .cls-72 {
        fill: url(#linear-gradient-46);
      }

      .cls-73 {
        fill: url(#linear-gradient-64);
      }

      .cls-74 {
        fill: url(#linear-gradient-28);
      }

      .cls-75 {
        fill: url(#linear-gradient-56);
      }

      .cls-76 {
        fill: url(#linear-gradient-10);
      }

      .cls-77 {
        fill: url(#linear-gradient-70);
      }

      .cls-78 {
        fill: url(#linear-gradient-78);
      }

      .cls-79 {
        fill: url(#linear-gradient-74);
      }

      .cls-80 {
        fill: url(#linear-gradient-4);
      }

      .cls-81 {
        fill: url(#linear-gradient-37);
      }

      .cls-82 {
        fill: url(#linear-gradient-80);
      }

      .cls-83 {
        fill: url(#linear-gradient-79);
      }

      .cls-84 {
        fill: url(#linear-gradient-75);
      }
    </style>
    <linearGradient id="linear-gradient" x1="446.1" y1="5.8" x2="563" y2="5.8" gradientUnits="userSpaceOnUse">
      <stop offset="0" stop-color="#202d5d"/>
      <stop offset="1" stop-color="#386cc0"/>
    </linearGradient>
    <linearGradient id="linear-gradient-2" x1="411.4" y1="12" x2="602.2" y2="12" xlink:href="#linear-gradient"/>
    <linearGradient id="linear-gradient-3" x1="386.2" y1="18.1" x2="634.4" y2="18.1" xlink:href="#linear-gradient"/>
    <linearGradient id="linear-gradient-4" x1="366.4" y1="24.5" x2="665.8" y2="24.5" xlink:href="#linear-gradient"/>
    <linearGradient id="linear-gradient-5" x1="0" y1="3.2" x2="1.9" y2="3.2" xlink:href="#linear-gradient"/>
    <linearGradient id="linear-gradient-6" x1="349.4" y1="30.6" x2="699.8" y2="30.6" xlink:href="#linear-gradient"/>
    <linearGradient id="linear-gradient-7" x1="334.1" y1="36.8" x2="741" y2="36.8" xlink:href="#linear-gradient"/>
    <linearGradient id="linear-gradient-8" x1="0" y1="6.3" x2="5.9" y2="6.3" xlink:href="#linear-gradient"/>
    <linearGradient id="linear-gradient-9" x1="0" y1="9.7" x2="10.6" y2="9.7" xlink:href="#linear-gradient"/>
    <linearGradient id="linear-gradient-10" x1="945.8" y1="2.9" x2="957.6" y2="2.9" xlink:href="#linear-gradient"/>
    <linearGradient id="linear-gradient-11" x1="319.8" y1="42.8" x2="805.1" y2="42.8" xlink:href="#linear-gradient"/>
    <linearGradient id="linear-gradient-12" x1="306.1" y1="49" x2="957.7" y2="49" xlink:href="#linear-gradient"/>
    <linearGradient id="linear-gradient-13" x1="0" y1="13.1" x2="15.7" y2="13.1" xlink:href="#linear-gradient"/>
    <linearGradient id="linear-gradient-14" x1="293" y1="55.1" x2="957.6" y2="55.1" xlink:href="#linear-gradient"/>
    <linearGradient id="linear-gradient-15" x1="0" y1="16.6" x2="21.6" y2="16.6" xlink:href="#linear-gradient"/>
    <linearGradient id="linear-gradient-16" x1="0" y1="20.9" x2="28.2" y2="20.9" xlink:href="#linear-gradient"/>
    <linearGradient id="linear-gradient-17" x1="280.5" y1="60.5" x2="957.6" y2="60.5" xlink:href="#linear-gradient"/>
    <linearGradient id="linear-gradient-18" x1="0" y1="24.8" x2="36.4" y2="24.8" xlink:href="#linear-gradient"/>
    <linearGradient id="linear-gradient-19" x1="268.2" y1="66.4" x2="957.4" y2="66.4" xlink:href="#linear-gradient"/>
    <linearGradient id="linear-gradient-20" x1="256.5" y1="72" x2="957.7" y2="72" xlink:href="#linear-gradient"/>
    <linearGradient id="linear-gradient-21" x1="0" y1="28.9" x2="44.3" y2="28.9" xlink:href="#linear-gradient"/>
    <linearGradient id="linear-gradient-22" x1="0" y1="32.7" x2="54.5" y2="32.7" xlink:href="#linear-gradient"/>
    <linearGradient id="linear-gradient-23" x1="244.5" y1="77.7" x2="957.5" y2="77.7" xlink:href="#linear-gradient"/>
    <linearGradient id="linear-gradient-24" x1="0" y1="37.5" x2="65.9" y2="37.5" xlink:href="#linear-gradient"/>
    <linearGradient id="linear-gradient-25" x1="232.4" y1="83.5" x2="957.5" y2="83.5" xlink:href="#linear-gradient"/>
    <linearGradient id="linear-gradient-26" x1="0" y1="42.1" x2="82.7" y2="42.1" xlink:href="#linear-gradient"/>
    <linearGradient id="linear-gradient-27" x1="220" y1="89.5" x2="957.7" y2="89.5" xlink:href="#linear-gradient"/>
    <linearGradient id="linear-gradient-28" x1="0" y1="46.7" x2="101.2" y2="46.7" xlink:href="#linear-gradient"/>
    <linearGradient id="linear-gradient-29" x1="206" y1="95.3" x2="957.7" y2="95.3" xlink:href="#linear-gradient"/>
    <linearGradient id="linear-gradient-30" x1="0" y1="51.4" x2="130.8" y2="51.4" xlink:href="#linear-gradient"/>
    <linearGradient id="linear-gradient-31" x1="184.5" y1="101.6" x2="957.9" y2="101.6" xlink:href="#linear-gradient"/>
    <linearGradient id="linear-gradient-32" x1="0" y1="111.3" x2="957.6" y2="111.3" xlink:href="#linear-gradient"/>
    <linearGradient id="linear-gradient-33" x1="-.3" y1="125.1" x2="957.4" y2="125.1" xlink:href="#linear-gradient"/>
    <linearGradient id="linear-gradient-34" x1="0" y1="138.2" x2="957.7" y2="138.2" xlink:href="#linear-gradient"/>
    <linearGradient id="linear-gradient-35" x1="0" y1="151.3" x2="957.6" y2="151.3" xlink:href="#linear-gradient"/>
    <linearGradient id="linear-gradient-36" x1="0" y1="164.3" x2="957.7" y2="164.3" xlink:href="#linear-gradient"/>
    <linearGradient id="linear-gradient-37" x1="0" y1="176.7" x2="957.5" y2="176.7" xlink:href="#linear-gradient"/>
    <linearGradient id="linear-gradient-38" x1="0" y1="189.5" x2="957.6" y2="189.5" xlink:href="#linear-gradient"/>
    <linearGradient id="linear-gradient-39" x1="0" y1="202.3" x2="957.6" y2="202.3" xlink:href="#linear-gradient"/>
    <linearGradient id="linear-gradient-40" x1="0" y1="214.8" x2="957.6" y2="214.8" xlink:href="#linear-gradient"/>
    <linearGradient id="linear-gradient-41" x1=".2" y1="226.8" x2="957.8" y2="226.8" xlink:href="#linear-gradient"/>
    <linearGradient id="linear-gradient-42" x1="0" y1="238.7" x2="957.7" y2="238.7" xlink:href="#linear-gradient"/>
    <linearGradient id="linear-gradient-43" x1="0" y1="250.6" x2="957.5" y2="250.6" xlink:href="#linear-gradient"/>
    <linearGradient id="linear-gradient-44" x1="0" y1="262.7" x2="957.7" y2="262.7" xlink:href="#linear-gradient"/>
    <linearGradient id="linear-gradient-45" x1="-.4" y1="274.7" x2="957.4" y2="274.7" xlink:href="#linear-gradient"/>
    <linearGradient id="linear-gradient-46" x1="0" y1="286.8" x2="957.6" y2="286.8" xlink:href="#linear-gradient"/>
    <linearGradient id="linear-gradient-47" x1="0" y1="299.6" x2="957.5" y2="299.6" xlink:href="#linear-gradient"/>
    <linearGradient id="linear-gradient-48" x1="0" y1="312.5" x2="957.7" y2="312.5" xlink:href="#linear-gradient"/>
    <linearGradient id="linear-gradient-49" x1="0" y1="325.9" x2="957.6" y2="325.9" xlink:href="#linear-gradient"/>
    <linearGradient id="linear-gradient-50" x1="0" y1="339.4" x2="957.4" y2="339.4" xlink:href="#linear-gradient"/>
    <linearGradient id="linear-gradient-51" x1="0" y1="353.2" x2="957.5" y2="353.2" xlink:href="#linear-gradient"/>
    <linearGradient id="linear-gradient-52" x1="0" y1="367.3" x2="957.4" y2="367.3" xlink:href="#linear-gradient"/>
    <linearGradient id="linear-gradient-53" x1="0" y1="381.6" x2="957.7" y2="381.6" xlink:href="#linear-gradient"/>
    <linearGradient id="linear-gradient-54" x1="0" y1="396.2" x2="957.6" y2="396.2" xlink:href="#linear-gradient"/>
    <linearGradient id="linear-gradient-55" x1="0" y1="409.7" x2="957.5" y2="409.7" xlink:href="#linear-gradient"/>
    <linearGradient id="linear-gradient-56" x1="0" y1="422" x2="957.6" y2="422" xlink:href="#linear-gradient"/>
    <linearGradient id="linear-gradient-57" x1="0" y1="433.8" x2="957.6" y2="433.8" xlink:href="#linear-gradient"/>
    <linearGradient id="linear-gradient-58" x1="422.3" y1="443.9" x2="957.5" y2="443.9" xlink:href="#linear-gradient"/>
    <linearGradient id="linear-gradient-59" x1="0" y1="452.1" x2="375.6" y2="452.1" xlink:href="#linear-gradient"/>
    <linearGradient id="linear-gradient-60" x1="0" y1="460.1" x2="354.2" y2="460.1" xlink:href="#linear-gradient"/>
    <linearGradient id="linear-gradient-61" x1="452.3" y1="450.9" x2="957.7" y2="450.9" xlink:href="#linear-gradient"/>
    <linearGradient id="linear-gradient-62" x1="0" y1="467.5" x2="343" y2="467.5" xlink:href="#linear-gradient"/>
    <linearGradient id="linear-gradient-63" x1="472.5" y1="458.2" x2="957.6" y2="458.2" xlink:href="#linear-gradient"/>
    <linearGradient id="linear-gradient-64" x1="0" y1="475" x2="335.1" y2="475" xlink:href="#linear-gradient"/>
    <linearGradient id="linear-gradient-65" x1="490.4" y1="465.9" x2="957.7" y2="465.9" xlink:href="#linear-gradient"/>
    <linearGradient id="linear-gradient-66" x1="0" y1="482.3" x2="328.8" y2="482.3" xlink:href="#linear-gradient"/>
    <linearGradient id="linear-gradient-67" x1="507.1" y1="473.9" x2="957.6" y2="473.9" xlink:href="#linear-gradient"/>
    <linearGradient id="linear-gradient-68" x1="523.6" y1="482.4" x2="957.7" y2="482.4" xlink:href="#linear-gradient"/>
    <linearGradient id="linear-gradient-69" x1="0" y1="489.8" x2="323.2" y2="489.8" xlink:href="#linear-gradient"/>
    <linearGradient id="linear-gradient-70" x1="541" y1="488.5" x2="957.6" y2="488.5" xlink:href="#linear-gradient"/>
    <linearGradient id="linear-gradient-71" x1="169.9" y1="497.5" x2="316" y2="497.5" xlink:href="#linear-gradient"/>
    <linearGradient id="linear-gradient-72" x1="0" y1="516" x2="41.1" y2="516" xlink:href="#linear-gradient"/>
    <linearGradient id="linear-gradient-73" x1="0" y1="522.7" x2="7.1" y2="522.7" xlink:href="#linear-gradient"/>
    <linearGradient id="linear-gradient-74" x1="199.9" y1="505.7" x2="308.7" y2="505.7" xlink:href="#linear-gradient"/>
    <linearGradient id="linear-gradient-75" x1="560.1" y1="494.1" x2="957.5" y2="494.1" xlink:href="#linear-gradient"/>
    <linearGradient id="linear-gradient-76" x1="224.6" y1="514.2" x2="298.8" y2="514.2" xlink:href="#linear-gradient"/>
    <linearGradient id="linear-gradient-77" x1="882.6" y1="499.6" x2="957.7" y2="499.6" xlink:href="#linear-gradient"/>
    <linearGradient id="linear-gradient-78" x1="583.7" y1="508.9" x2="798.1" y2="508.9" xlink:href="#linear-gradient"/>
    <linearGradient id="linear-gradient-79" x1="914.7" y1="505.6" x2="957.6" y2="505.6" xlink:href="#linear-gradient"/>
    <linearGradient id="linear-gradient-80" x1="617.2" y1="517.8" x2="754.8" y2="517.8" xlink:href="#linear-gradient"/>
    <linearGradient id="linear-gradient-81" x1="251.3" y1="523" x2="280.1" y2="523" xlink:href="#linear-gradient"/>
    <linearGradient id="linear-gradient-82" x1="933.6" y1="511.7" x2="957.6" y2="511.7" xlink:href="#linear-gradient"/>
    <linearGradient id="linear-gradient-83" x1="947" y1="518.1" x2="957.6" y2="518.1" xlink:href="#linear-gradient"/>
    <linearGradient id="linear-gradient-84" x1="957.4" y1="524.5" x2="957.6" y2="524.5" xlink:href="#linear-gradient"/>
  </defs>
  <path class="cls-6" d="M524.2,8.1c12.9-1.5,25.9-3.7,38.7-6.5h-10.3c-9.5,1.8-19,3.4-28.5,4.4-22.8,2.6-48.4,3.7-72.4-4.4h-5.8c25.8,10.5,53.7,9.3,78.4,6.5h-.2Z"/>
  <path class="cls-42" d="M445.9,15.6c-12.2-3.1-22.6-7.8-31.2-14h-3.2c9.4,7.3,20.8,12.6,34.2,16.1,21.8,5.6,45.5,6.1,77.1,1.8,26.6-3.6,53.1-10.1,79.5-17.9h-7.4c-24,6.8-48.1,12.5-72.2,15.8-31.4,4.3-55,3.7-76.7-1.8h0Z"/>
  <path class="cls-47" d="M441.6,29.7c-14.9-2.8-36.5-8.7-52.6-27.5-.2-.2-.4-.5-.6-.7h-2.2c.6.8,1.3,1.6,1.9,2.3,16.4,19.1,38.2,25.1,53.3,27.9,23,4.3,47.6,3.9,80.3-1.2,37.7-5.9,75.7-17,112.8-29.1h-6.7c-35,11.2-70.7,21.4-106.2,27-32.4,5.1-57.1,5.4-79.9,1.2h0Z"/>
  <path class="cls-80" d="M521,39.5c-32.9,5.7-59.3,7-82.9,4-17.4-2.2-39.5-6.9-56.9-23.8-5.1-5-9.4-11.2-13.1-18.1h-1.8c4,7.6,8.6,14.4,14.2,19.9,17.6,17.2,40,21.9,57.6,24.2,23.8,3,50.1,1.8,83.2-4,43.6-7.6,87.5-21.7,129.8-35.3,4.9-1.6,9.8-3.1,14.7-4.7h-6.7c-2.8.9-5.5,1.8-8.3,2.7-42.3,13.6-86.1,27.8-129.7,35.2h0Z"/>
  <path class="cls-18" d="M0,1.6h0v3.2c.6-1,1.3-2.1,1.9-3.2H0Z"/>
  <path class="cls-11" d="M521.3,50.3c-33.7,6.3-60.9,8.4-85.6,6.5-19.7-1.5-42.3-5.1-61.1-20.3-9.6-7.7-16.8-18.3-23.6-34.9h-1.7c7,17.7,14.5,28.8,24.5,36.8,19.1,15.3,41.9,19,61.8,20.5,24.8,1.9,52-.2,85.9-6.5,42.3-8,84.8-21.5,125.8-34.5,17.3-5.5,34.8-11.1,52.5-16.3h-7.2c-15.3,4.6-30.5,9.5-45.6,14.3-41,13.1-83.5,26.6-125.7,34.4h0Z"/>
  <path class="cls-45" d="M522.8,60.7c-33.9,7-62,9.9-88.4,9-20.8-.7-44.8-3.3-65.3-16.8-11.9-7.9-20.6-19.3-28.1-37.1-1.9-4.6-3.7-9.3-5.4-14.1h-1.6c1.8,5.2,3.8,10.3,5.8,15.2,7.7,18.2,16.5,29.9,28.7,37.9,20.7,13.7,44.9,16.3,65.9,17,26.4.9,54.5-1.9,88.6-9,39.9-8.3,80.1-20.8,118.9-32.8,32.4-10.1,65.6-20.4,99-28.4h-8.7c-30.6,7.7-60.9,17.1-90.6,26.4-38.8,12.1-79,24.6-118.8,32.7Z"/>
  <path class="cls-59" d="M3.9,1.6C2.6,3.7,1.3,5.8,0,7.9v3.2C2,7.9,3.9,4.7,5.9,1.6h-2Z"/>
  <path class="cls-50" d="M8.5,1.6C5.6,5.8,2.8,10.1,0,14.6v3.2C3.5,12.2,7,6.8,10.6,1.6h-2.1Z"/>
  <path class="cls-76" d="M957.6,4.3v-2.1c-.7-.2-1.5-.4-2.2-.6h-9.6c3.9.8,7.9,1.7,11.8,2.7Z"/>
  <path class="cls-15" d="M623.6,42c-32,10.2-65.1,20.8-97.9,28.4-33.6,7.8-63.2,11.5-90.3,11.5h0c-23.3,0-47.7-1.7-70-13.6-13.9-7.5-23.8-18.6-32-36-4.6-9.6-8.4-20.2-11.9-30.6h-1.6c3.7,10.9,7.6,21.9,12.4,31.8,8.4,17.7,18.8,29.4,32.7,36.8,22.5,12.1,47.1,13.8,70.5,13.8h0c27.2,0,56.8-3.8,90.5-11.6,32.8-7.6,66-18.2,98-28.4,20.7-6.6,42-13.4,63.1-19.4,32.6-9.2,68.1-16.3,111.6-22.3,2.1-.3,4.2-.6,6.4-.9h-15.2c-39.6,5.7-72.6,12.5-103,21.1-21.1,6-42.4,12.8-63.1,19.4h-.2Z"/>
  <path class="cls-2" d="M801.1,11.8l-1.7.2c-35.6,3.8-73.5,8.3-111.2,18.6-25,6.8-50.1,15.2-74.4,23.3-27.6,9.2-56,18.6-84.3,25.9-33.8,8.7-63.6,13.3-90.8,14.2-23.6.8-50.9,0-75.5-10.8-15.7-6.9-27.2-17.6-36.1-33.6-8-14.3-13.8-31.2-19.4-47.6h-1.6c0,.2,0,.3.2.5,5.7,16.7,11.5,33.9,19.7,48.5,9.2,16.4,20.9,27.3,36.8,34.3,24.8,11,52.3,11.7,76,10.9,27.4-.9,57.1-5.5,91-14.2,28.3-7.2,56.8-16.7,84.4-25.9,24.4-8.1,49.4-16.4,74.4-23.2,37.6-10.3,75.5-14.8,111-18.6l1.7-.2c51.5-5.4,104.5-11,156.4,0v-2.1c-51.9-11.1-105-5.5-156.5,0v-.3Z"/>
  <path class="cls-27" d="M13.6,1.6C9,7.9,4.4,14.5,0,21.5v3.1C5.1,16.5,10.4,8.8,15.7,1.6h-2.1Z"/>
  <path class="cls-41" d="M828,20.4c-9,.7-18.3,1.3-27.4,1.9-35.3,2.2-73,5.1-110.4,15.2-27.7,7.4-55.5,17.2-82.5,26.7-24,8.4-48.8,17.1-73.4,24.1-56,16-115.5,28.1-170.7,8.4-18.1-6.4-30.6-15.8-40.6-30.2-9.7-14-16.6-31.5-22.7-48.6-.9-2.5-1.8-5-2.7-7.6-1-2.9-2-5.7-3.1-8.6h-1.6c1.1,3.2,2.3,6.4,3.4,9.6.9,2.5,1.8,5.1,2.7,7.6,6.1,17.2,13.1,34.9,23,49.1,10.3,14.8,23.1,24.3,41.3,30.7,25.4,9,53.4,12,85.8,9.1,31.2-2.8,62.2-10.8,85.7-17.5,24.6-7,49.4-15.7,73.4-24.2,27-9.4,54.7-19.2,82.4-26.6,37.3-10,75-13,110.2-15.2,9.1-.6,18.4-1.2,27.4-1.9,42.6-3.1,86.5-6.3,129.5,1.3v-2.1c-43.1-7.5-87-4.4-129.6-1.3h0Z"/>
  <path class="cls-14" d="M19.3,1.6C12.7,9.9,6.3,19,0,28.5v3.1C6.9,20.9,14.2,10.8,21.6,1.6h-2.3Z"/>
  <path class="cls-31" d="M28.2,1.6h-2.3c-1.7,2.1-3.4,4.2-5.1,6.4C13.5,17.5,6.6,27.2,0,37.1v3.1c6.8-10.5,14.1-20.8,21.8-30.7,2.1-2.7,4.2-5.3,6.4-7.9Z"/>
  <path class="cls-3" d="M847.3,29.7c-14.8.7-30.1,1.4-45.1,1.6-33.1.5-71.8,1.9-109.5,12.1-29.6,8-59.1,19.1-87.8,29.8-21.2,7.9-43,16.1-64.6,23-52.2,16.6-113.6,31.1-172.4,13.6-14.6-4.3-33.1-11.6-48-29.2-9.1-10.8-17.3-25.7-25.6-46.8-2.5-6.4-5-13.1-7.3-19.5-1.6-4.3-3.2-8.6-4.8-12.9h-1.7c1.7,4.6,3.5,9.2,5.1,13.8,2.4,6.5,4.8,13.2,7.3,19.6,8.4,21.4,16.6,36.4,25.9,47.4,15.1,17.9,33.9,25.2,48.6,29.6,17.9,5.3,36.7,8,57.1,8s19.4-.6,29.7-1.7c25.2-2.8,52.6-9.2,86.4-19.9,21.7-6.9,43.5-15.1,64.7-23,28.7-10.7,58.2-21.8,87.7-29.8,37.6-10.2,76.2-11.6,109.3-12.1,15-.2,30.3-.9,45.1-1.6,36.3-1.7,73.7-3.4,110.3,1.7v-2.1c-36.7-5.1-74.1-3.4-110.4-1.7h0Z"/>
  <path class="cls-64" d="M36.4,1.6h-2.4c-5.9,6.3-11.5,13-17,20.1C11.2,29.2,5.5,37.1,0,45.1v3c5.7-8.5,11.7-16.9,18-25,5.8-7.6,12-14.8,18.4-21.6Z"/>
  <path class="cls-4" d="M892.7,40.2c-29.4.6-59.3.4-89-.6-34.7-1.1-72-.8-108.6,9.3-30.8,8.5-61.8,21-91.6,33-18.7,7.6-37.9,15.4-57.1,22.1-48.3,17.1-111.5,34.5-172.1,19-22.7-5.9-40.8-15.2-55.5-28.7-11.1-10.1-20.8-24.8-29.8-44.8-4.2-9.3-8-19.3-11.7-29-2.4-6.3-4.9-12.7-7.5-19h-1.7c2.7,6.6,5.3,13.3,7.9,20,3.7,9.7,7.6,19.8,11.8,29.2,9.1,20.4,19,35.2,30.2,45.5,14.8,13.6,33.1,23,56,28.9,16,4.1,32.6,6.2,50.3,6.2s23.8-.9,36.4-2.7c25.5-3.6,52.7-10.8,86-22.5,19.1-6.7,38.4-14.6,57.1-22.1,29.9-12.1,60.7-24.5,91.4-32.9,36.4-10,73.6-10.4,108.2-9.3,29.7,1,59.6,1.1,89,.6,21.9-.4,43.4-.6,64.9,1.3v-2.1c-21.6-2-43-1.8-64.9-1.3h.2Z"/>
  <path class="cls-40" d="M906.6,51c-4.3,0-8.6,0-12.9,0-32.2.2-64-2-88.1-4-32.2-2.6-70.3-3.9-107.5,6.7-31.8,9.1-63.6,23-94.3,36.3-16.5,7.2-33.4,14.7-50.3,21.3-47.2,18.6-109.3,38-170,24.5-45.3-10.2-78.3-34.2-97.8-71.5-6.1-11.7-11.5-24.8-16.6-37.3-3.5-8.5-7-17.2-10.9-25.6h-1.7c4,8.7,7.7,17.7,11.4,26.6,5.2,12.7,10.6,25.8,16.7,37.5,10.9,20.8,26,37.6,44.8,50.1,15.3,10.1,33.4,17.6,53.9,22.2,13.9,3.1,28.1,4.7,43,4.7s28-1.3,42.9-3.9c25.2-4.4,52.1-12.4,84.8-25.3,16.9-6.6,33.8-14.1,50.3-21.3,30.6-13.4,62.4-27.3,94.1-36.3,37.1-10.6,75-9.3,107.2-6.7,24.1,2,55.8,4.2,88.2,4,4.3,0,8.6,0,12.9,0,16.8-.2,33.9-.3,51,.6v-2.1c-17.2-.9-34.3-.8-51.1-.6h0Z"/>
  <path class="cls-10" d="M44.3,1.6h-2.5c-10.3,10.7-19.9,22.5-28.3,33.3C8.9,40.9,4.4,47.1,0,53.3v3c4.7-6.8,9.5-13.4,14.5-19.8C23.4,25.1,33.5,12.6,44.3,1.6Z"/>
  <path class="cls-32" d="M54.5,1.6h-2.7C33.6,18.1,16.2,38,0,61v2.9C17,39.7,35.3,18.7,54.5,1.6Z"/>
  <path class="cls-28" d="M924.7,61.5c-9.8,0-19.9.2-29.9,0-29.9-.4-59.4-4-87.3-7.6-31.6-4.1-69.1-6.9-106.5,4.3-32.6,9.7-65,25.1-96.2,39.9-14.5,6.9-29.4,14-44.1,20.4-48.9,21.4-107,41.6-166.3,30-33-6.5-79-23.8-110-69.7-9.4-13.9-16.8-30.7-24-47.1-4.5-10.2-9-20.6-14.1-30.3h-1.8c5.3,10.1,10.1,20.9,14.7,31.4,7.2,16.5,14.7,33.4,24.2,47.4,13.5,20,30.9,36.2,51.7,48.4,17.5,10.3,37.4,17.6,59.1,21.9,11.6,2.3,23.4,3.4,35.6,3.4s31.6-1.8,48.6-5.4c24.5-5.2,50.7-14.2,82.7-28.1,14.8-6.5,29.8-13.6,44.1-20.5,31.2-14.9,63.5-30.1,96-39.9,37.2-11.1,74.6-8.4,106-4.3,27.8,3.6,57.4,7.2,87.4,7.6,10,0,20.1,0,29.9,0,10.9,0,22-.2,33,0v-2.1c-11.1-.2-22.2,0-33,0l.2.2Z"/>
  <path class="cls-61" d="M65.9,1.6h-2.9c-4.7,3.9-9.4,8.2-14.1,12.7-13.6,13.1-27.6,28.6-41.3,46.2C5,63.8,2.5,67.1,0,70.5v2.9c2.8-3.8,5.6-7.6,8.5-11.3C28.2,37.1,47.3,16.9,65.9,1.6Z"/>
  <path class="cls-29" d="M895.9,71.6c-29.5-1-58.3-6.3-86.4-11.3-31-5.6-67.9-9.7-105.4,2.1-33.2,10.5-66.1,27.5-97.7,43.8-12.5,6.5-25.5,13.2-38.2,19.4-47.6,23.1-104,45.3-161.4,35.6-47.3-8-90.1-32-120.4-67.8-13-15.3-22.8-35.3-32.2-54.7-6.2-12.6-12.5-25.6-19.8-37.2h-1.9c7.5,12,14.1,25.4,20.5,38.4,9.5,19.5,19.4,39.6,32.4,55.1,16.2,19.1,35.5,34.7,57.6,46.6,19.8,10.6,41.1,17.9,63.6,21.7,9.5,1.6,19,2.3,28.4,2.3,47.7,0,93.7-18.8,133.7-38.1,12.8-6.2,25.7-12.9,38.2-19.4,31.6-16.4,64.4-33.3,97.5-43.7,37.3-11.8,74-7.6,104.9-2.1,28.1,5,57,10.3,86.5,11.3,14.9.5,29.9.2,44.5,0,5.7,0,11.5-.2,17.3-.3v-2.1c-5.8,0-11.6.2-17.3.3-14.6.3-29.7.6-44.4,0h0Z"/>
  <path class="cls-62" d="M82.7,1.6h-3.3C55.4,18.9,32.9,39.8,12.7,64.1c-4.3,5.1-8.5,10.4-12.7,15.9v2.7C24.4,50.3,52,23.2,82.7,1.6Z"/>
  <path class="cls-51" d="M897.1,81.4c-27.3-1.7-54.5-7.9-81-14l-4.5-1c-20.2-4.6-36.7-6.9-52.2-7.3-18.8-.5-35.8,1.9-52.2,7.3-33.8,11.2-67,29.9-98.9,48-10.7,6-21.7,12.2-32.4,18.1-48.5,26.1-100.8,49.1-155.5,41.3-46.9-6.7-92.7-30.1-129.2-66.1-15.6-15.4-28.9-33.5-39.6-54.2-1.8-3.5-3.7-7.1-5.4-10.6-6.5-12.7-13.1-25.8-20.8-36.9-1.1-1.5-2.1-3-3.2-4.4h-2.1c1.4,1.9,2.9,3.8,4.3,5.9,7.6,11.1,14.3,24.2,20.7,36.7,1.8,3.5,3.6,7.1,5.5,10.6,10.8,20.8,24.3,39.1,39.9,54.6,36.6,36.1,82.8,59.7,129.9,66.5,7.4,1.1,14.8,1.6,22.1,1.6,46.9,0,91.9-20.4,134.1-43,10.8-5.8,21.9-12.1,32.4-18.1,31.9-18.1,65-36.7,98.7-47.9,37.4-12.4,73.5-6.9,103.9,0l4.5,1c26.5,6.1,53.8,12.3,81.2,14,19.3,1.2,38.7.4,57.6-.3,1,0,2,0,2.9,0v-2.1c-1,0-2,0-3,0-18.9.7-38.3,1.5-57.5.3h0Z"/>
  <path class="cls-74" d="M82.9,13.2c6-3.9,12.1-7.9,18.4-11.6h-3.8c-5.2,3.1-10.2,6.4-15.2,9.7C52.4,30.9,24.9,56.9,0,88.9v2.8C25.1,59.3,52.7,33,82.9,13.2Z"/>
  <path class="cls-71" d="M898.4,90.9c-25.7-2.3-51.3-9.4-76.2-16.3-2.8-.8-5.6-1.6-8.4-2.3-20-5.5-36.3-8.4-51.7-9.1-18.6-.9-35.5,1.5-51.8,7.2-34.4,12.1-68,32.7-100.3,52.7-8.7,5.4-17.8,11-26.6,16.2-43.7,26.1-94.8,53.3-149,46.9-45.6-5.4-94.1-28.4-136.5-64.7-17.8-15.3-33.4-32.9-46.4-52.6-5-7.5-9.5-15.9-13.9-24.1-4.9-9.2-10-18.7-15.8-26.9-4.5-6.4-9-11.9-13.5-16.6h-2.5c5,5,10,11.1,15,18.1,5.7,8.1,10.7,17.5,15.6,26.7,4.4,8.2,9,16.7,14,24.2,13.1,19.8,28.9,37.6,46.7,52.9,42.5,36.4,91.2,59.5,137.1,64.9,5.4.6,10.9,1,16.4,1,19,0,38.7-3.8,60-11.5,26.4-9.5,51.8-23.9,73.3-36.6,8.9-5.3,17.9-10.9,26.7-16.3,32.3-20,65.7-40.5,100.1-52.6,37.1-13,72.9-6.3,102.9,2,2.8.8,5.6,1.6,8.4,2.3,24.9,6.9,50.5,14.1,76.4,16.3,19.8,1.7,39.7.9,59.3-.3v-2.1c-19.6,1.2-39.5,2.1-59.3.3v.3Z"/>
  <path class="cls-66" d="M77.6,28.1c18.4-12,36.2-20.9,53.2-26.6h-6.1c-15.4,5.7-31.3,14-47.8,24.7C52.4,42.1,29,63.5,7.1,89.5c-2.4,2.8-4.7,5.7-7.1,8.7v2.9c24.3-30.7,50.1-55.2,77.6-73Z"/>
  <path class="cls-19" d="M899.7,100.4c-24.2-2.8-48.2-10.6-71.5-18.2-4-1.3-8.1-2.6-12.2-3.9-30-9.6-65.7-17.5-102.6-3.8-35.1,13-69,35.8-101.7,57.8-6.8,4.6-13.9,9.4-20.8,13.9-44.2,29.2-91.5,57.2-141.9,52.5-55.7-5.2-108.1-37.3-142.2-63.4-20.1-15.3-38-32.8-53.4-52-8.7-10.9-16.9-23.1-24.9-34.8-3.4-5-6.9-10.3-10.4-15.3-8-11.5-17.7-24-29.9-31.5h-3.9c13.7,7.2,24.3,20.7,32.8,33,3.5,5,7,10.2,10.4,15.3,7.9,11.8,16.2,24.1,25,35,15.5,19.4,33.5,36.9,53.7,52.3,34.2,26.2,86.8,58.4,142.8,63.6,3.8.4,7.6.5,11.4.5,19.5,0,39.8-4.6,61.7-13.8,23.9-10.1,47.5-24.9,69.5-39.4,6.9-4.6,14-9.3,20.8-13.9,32.6-22,66.4-44.7,101.4-57.7,36.6-13.6,72.1-5.7,102,3.9,4.1,1.3,8.2,2.6,12.2,3.9,23.4,7.6,47.4,15.4,71.7,18.2,19.4,2.2,38.8,1.5,58.1,0v-2.1c-19.3,1.6-38.7,2.4-58,0h-.2Z"/>
  <path class="cls-37" d="M72.8,42.4C103.6,22.4,143.5,1.4,177.5,16.4c14.3,6.3,26.5,19.6,37.3,32.9,3.6,4.4,7.2,9,10.8,13.4,9.6,12,19.5,24.5,29.9,35.5,18.1,19.3,38.4,36.9,60.8,52.5,23.7,16.5,48.8,30.4,74.8,41.8,21.4,9.3,46.6,19,72.1,20.8,2.4.2,4.8.2,7.2.2,19.8,0,40.3-5.4,62.6-16.4,22.3-11,43.7-26.2,65.6-42,5-3.6,10.1-7.4,15-11,33-24.3,67.1-49.4,102.9-63.2,36.3-14.1,71.6-5.1,101.2,5.6,4.7,1.7,9.5,3.5,14.2,5.2,22.4,8.3,45.5,16.9,69,20.2,19.2,2.7,38.6,2,56.8,0v-2.1c-18.2,1.9-37.5,2.6-56.7,0-23.4-3.3-46.4-11.9-68.8-20.2-4.6-1.7-9.4-3.5-14.2-5.2-29.9-10.8-65.3-19.9-101.9-5.6-35.9,14-70.2,39-103.2,63.4-4.9,3.6-10,7.4-15,11-46.1,33.5-88.2,61.1-134.7,57.9-25.3-1.7-50.4-11.4-71.7-20.7-26-11.3-51-25.3-74.6-41.7-22.2-15.5-42.6-33-60.5-52.2-10.3-11.1-20.2-23.5-29.8-35.4-3.5-4.4-7.2-9-10.8-13.4-11.1-13.6-23.3-27-37.8-33.4-34.5-15.2-74.7,6-105.8,26.1-23.3,15-45.9,35.6-67.5,61.4C3.1,103.6,1.6,105.5,0,107.5v2.8c23.5-29.3,47.5-51.7,72.8-68.1v.2Z"/>
  <path class="cls-5" d="M68.5,56.1c27.6-17.9,68.4-39.8,104.6-25,15,6.2,28.6,19.3,41,32.4,3.9,4.2,7.9,8.5,11.8,12.6,11.2,12.1,22.8,24.6,34.6,35.7,20.2,19,42.6,36.5,66.9,52.2,25.4,16.5,51.7,30.4,78.3,41.7,22.7,9.6,46.8,19.1,71.1,19.9h3.4c20,0,40.6-6.2,63-18.9,21.1-11.9,41.5-28.4,61.4-44.1l.6-.5c3.1-2.5,6.2-5,9.3-7.5,33.3-26.8,67.9-54.4,104.5-69.2,17.3-7,33.8-9.2,50.7-6.9,14.6,2,29.9,6.4,49.8,14.3,5.2,2.1,10.5,4.2,15.6,6.4,21.7,8.9,44,18.2,66.8,22,19,3.2,37.9,2.5,55.5.4v-2.1c-17.6,2.1-36.4,2.8-55.4-.3-22.7-3.8-45-13-66.6-21.9-5.1-2.1-10.4-4.3-15.6-6.4-20-8-35.4-12.4-50.1-14.4-17.1-2.3-33.8,0-51.3,7-36.8,14.9-71.4,42.5-104.8,69.4-3.1,2.5-6.2,5-9.3,7.5l-.6.5c-38.6,30.8-78.7,62.8-123.7,62.8s-2.2,0-3.3,0c-24.2-.8-48.2-10.3-70.8-19.8-26.6-11.3-52.8-25.3-78.1-41.6-24.2-15.7-46.5-33.1-66.7-52-11.9-11.2-23.5-23.7-34.6-35.6-3.9-4.2-7.8-8.5-11.8-12.6-12.6-13.4-26.4-26.6-41.5-32.8-15.6-6.4-33.6-6.6-53.7-.5-15.6,4.7-32.5,13.1-51.9,25.7-22.4,14.5-43.6,34-65.2,59.8-.9,1.1-1.8,2.1-2.7,3.2v2.7c22.8-28.1,45-48.7,68.5-63.8l.3-.3Z"/>
  <path class="cls-23" d="M64.7,69.3c41.7-27.3,76.2-35.2,105-24.3,16.7,6.3,31.9,19.9,45.1,32.1,44.5,41.6,82.8,74.6,124.5,100.2,27.3,16.8,54.8,30.9,81.7,42.1,24.4,10.2,46.3,18.6,68.6,18.8h.7c42.6,0,79.4-32.1,115-63.3,2-1.8,4-3.5,6.1-5.3l4-3.5c33.6-29.5,68.5-59.8,106.1-75.4,35.6-14.8,70.6-3.7,100.1,9,5.5,2.4,11.2,4.9,16.6,7.4,21.1,9.5,42.9,19.3,65.2,23.5,16.6,3.2,33.9,3.4,54.3.5v-2.1c-20.4,2.8-37.6,2.6-54.1-.5-22.2-4.2-43.9-14-64.9-23.5-5.4-2.4-11.1-5-16.6-7.4-19.6-8.4-35.4-13.3-50.1-15.2-18.3-2.4-34.9-.4-50.8,6.2-37.8,15.7-72.8,46.1-106.5,75.6l-4,3.4c-2,1.8-4,3.5-6.1,5.3-35.4,30.9-72,63-114.2,63s-.5,0-.7,0c-22.2-.2-44-8.6-68.2-18.7-26.9-11.2-54.3-25.4-81.6-42-41.6-25.6-79.8-58.5-124.3-100-13.2-12.3-28.7-26.1-45.5-32.4-16-6.1-34.1-6.4-53.9-.8-16,4.5-33.4,13-52.1,25.1C42.9,81.2,22.3,100.3.9,125.8c-.3.4-.6.7-.9,1.1v2.7c20.5-24.9,41.4-45.1,64.7-60.3Z"/>
  <path class="cls-35" d="M167.3,58.4c17.8,6.3,34,19.3,49.2,31.9,44,36.8,87.5,72.2,134.9,100.1,28.4,16.7,56,30.8,82.5,41.9l.4.2c21.3,9,43.3,18.3,65.3,18.3h1.4c39.7-.7,73.4-32.9,105.8-64.1,3.2-3.1,6.6-6.3,9.9-9.4,31.9-30.2,68.2-64.5,106.7-80.7,35.3-14.8,70.3-2.9,99.9,10.7,5.8,2.6,11.6,5.4,17.3,8.2,20.7,9.9,42,20.2,64,24.8,16.4,3.4,33.6,3.6,53,.6v-2.1c-19.4,3-36.5,2.8-52.8-.6-21.8-4.6-43.1-14.8-63.7-24.7-5.7-2.7-11.5-5.5-17.3-8.2-19.5-9-35.3-14.2-49.9-16.4-18.4-2.8-34.9-.9-50.8,5.7-38.8,16.3-75.1,50.6-107.1,81-3.3,3.1-6.7,6.3-9.9,9.5-32.3,30.9-65.8,63-105.1,63.7-22.3.4-44.7-9.1-66.4-18.2l-.4-.2c-26.4-11.1-54-25.2-82.3-41.8-47.3-28-90.7-63.3-134.7-100-15.3-12.8-31.7-25.9-49.6-32.1-16.5-5.9-34.8-6.2-54.4-1-16.6,4.4-34.2,12.7-52.4,24.9C38.6,95,18.8,114.8,0,137v2.7c18.9-22.6,39-42.6,61.4-57.5,39.9-26.5,75.5-34.4,105.9-23.7h0Z"/>
  <path class="cls-56" d="M165.6,71.3c19,6.3,36.8,19.3,53.5,31.9h0c46.4,35.3,94.4,71.9,144.2,100.5,29.9,17.2,57,30.9,83,42.1l2.7,1.1c19.2,8.3,38.9,16.8,58.7,16.8h3c37.3-1.7,68.3-34,98.3-65.3,4.1-4.2,8.3-8.6,12.4-12.8,35.3-35.9,67.5-67,103.8-82.2,35-14.7,70.2-2,99.8,12.2,5.9,2.8,11.8,5.8,17.6,8.7,20.5,10.3,41.5,21,63.3,25.8,16.3,3.6,33.1,3.8,51.8.6v-2.1c-18.6,3.3-35.3,3.1-51.6-.5-21.6-4.8-42.6-15.4-63-25.7-5.8-2.9-11.7-5.9-17.6-8.7-29.9-14.4-65.3-27.1-100.7-12.3-36.5,15.3-68.9,46.4-104.2,82.5-4.1,4.2-8.3,8.6-12.4,12.9-29.9,31.1-60.7,63.3-97.5,64.9-20.5.9-41.2-8-61.2-16.6l-2.7-1.1c-26-11.2-53-25-82.9-42.1-49.6-28.6-97.6-65.1-144-100.3h0c-16.8-12.8-34.7-25.8-53.9-32.1-40.7-13.6-81.3,5.3-108,23.5C37.1,107.1,18.2,126.2,0,147.2v2.7c18.2-21.5,37.4-40.8,58.5-55.1,26.6-18.1,66.7-36.7,107.1-23.3v-.3Z"/>
  <path class="cls-81" d="M164.5,83.7c20.4,6.4,39.7,19.3,57.8,31.9,6.3,4.4,12.7,8.9,19,13.3,43.2,30.3,87.9,61.8,133.4,87.8,31.1,17.8,57.3,31.2,82.4,42.4,1.3.6,2.6,1.1,3.9,1.7,17.4,7.8,35.2,15.8,53.1,15.8s2.7,0,4,0c35.5-2.5,64.7-35.2,92.9-67,4.6-5.1,9.3-10.5,13.9-15.5,32.5-35.3,64.7-68.2,101.4-83.2,34.9-14.2,70.2-1.1,100,13.7,5.8,2.9,11.8,6,17.5,8.9,20.4,10.6,41.3,21.5,63,26.4,16,3.7,32.7,3.8,50.7.3v-2.1c-17.9,3.5-34.5,3.4-50.4-.3-21.6-4.9-42.5-15.8-62.8-26.3-5.7-3-11.7-6.1-17.5-8.9-30-14.9-65.6-28.1-100.9-13.8-17,6.9-34.4,18.3-53.4,34.8-17.5,15.3-34.2,33.1-48.5,48.6-4.6,5-9.4,10.3-13.9,15.5-28.1,31.5-57.1,64.2-92.1,66.6-19,1.3-38-7.3-56.6-15.6-1.3-.6-2.6-1.2-3.9-1.7-25.1-11.2-51.2-24.7-82.3-42.4-45.4-26-90.1-57.4-133.3-87.8-6.3-4.4-12.6-8.9-19-13.3-18.2-12.8-37.6-25.8-58.2-32.1-17.7-5.6-36.4-6.1-55.8-1.6-18,4.2-36,12.6-53.7,25C35.3,118.8,17.2,137.3,0,157.3v2.7c17.5-20.4,35.9-39.1,56-53.3,25.7-18.1,65.4-36.7,108.5-23.2v.2Z"/>
  <path class="cls-1" d="M163.9,95.9c21.9,6.5,42.6,19.5,62.1,32.1,13.5,8.8,27.2,17.9,40.4,26.7,38.6,25.7,78.6,52.2,118.7,75.3,32.2,18.5,57.1,31.6,80.7,42.7,1.4.7,2.9,1.4,4.3,2,15.8,7.5,32,15.2,48.3,15.2s3,0,4.4-.2c15.5-1.4,31-9.2,47.8-23.9,14.8-12.9,28.7-29.4,42-45.3,5.1-6,9.8-11.7,14.7-17.3,30.1-34.5,62.7-69.4,99.7-83.7,34.9-13.5,70.4,0,100.5,15.2,5.7,2.8,11.5,5.9,17,8.8,20.5,10.7,41.6,21.8,63.4,26.8,15.9,3.6,32.2,3.6,49.6-.2v-2.1c-17.3,3.8-33.5,3.8-49.4.2-21.7-4.9-42.7-16-63.1-26.7-5.6-2.9-11.4-5.9-17.1-8.8-30.3-15.2-66.1-28.8-101.3-15.2-37.2,14.4-70,49.4-100.2,84.1-4.9,5.6-9.7,11.3-14.7,17.3-27.1,32.2-55,65.6-89.1,68.7-17.5,1.6-35.1-6.8-52.2-14.9-1.5-.7-2.9-1.4-4.3-2-23.6-11.1-48.4-24.3-80.6-42.7-40.1-23.1-80.1-49.6-118.7-75.3-13.3-8.8-27-17.9-40.4-26.8-19.5-12.8-40.3-25.8-62.4-32.2-18.4-5.5-37.4-6.1-56.6-1.8-18.5,4.1-36.8,12.7-54.4,25.4-19,13.8-36.4,31.7-53.2,50.8v2.7c17-19.4,34.6-37.7,53.8-51.6,35.9-26,74.1-34,110.1-23.4h0Z"/>
  <path class="cls-46" d="M163.7,107.9c23.6,6.7,46.5,20.3,66.2,32.3,21.3,13.2,42.8,27,63.7,40.3,32.8,21.1,66.9,42.9,100.7,62.8,24.8,14.5,51.2,29.8,77.7,43.1,1.5.8,3.1,1.6,4.6,2.4,14.1,7.2,28.6,14.6,43.1,14.6s3.3,0,4.9-.3c15.4-1.8,31-10.2,47.9-25.7,14.9-13.6,28.7-30.5,42-47.1,4.9-6,9.5-11.7,14.1-17.2,29.5-34.9,61.3-70.2,98.8-83.4,35.3-12.5,71,1.2,101.1,16.2,5.4,2.7,10.8,5.5,16.1,8.2,20.8,10.8,42.2,21.9,64.3,26.7,15.8,3.4,31.8,3.1,48.6-.9v-2.1c-16.7,4.1-32.7,4.4-48.4.9-22-4.8-43.3-15.9-64.1-26.6-5.3-2.7-10.8-5.6-16.1-8.2-20.1-10-35.5-15.8-50.3-18.9-18.8-3.9-35.6-3.1-51.7,2.6-17.1,6-34.2,17-52.7,33.6-16.8,15.2-32.3,33-46.7,50.1-4.7,5.5-9.3,11.2-14.1,17.2-25.9,31.9-55.2,68.2-89.2,72.2-16,1.9-31.9-6.3-47.4-14.2-1.6-.8-3.1-1.6-4.6-2.4-26.4-13.3-52.9-28.6-77.6-43-33.8-19.9-67.8-41.6-100.6-62.7-20.9-13.4-42.4-27.2-63.7-40.3-19.8-12.2-42.7-25.8-66.5-32.5-38.2-10.8-77.2-2.5-112.6,24-18.3,13.7-35.1,31.2-51.4,49.5v2.7c16.5-18.6,33.5-36.5,52-50.3,35.2-26.3,73.8-34.5,111.7-23.8h0Z"/>
  <path class="cls-25" d="M163.8,119.8c24,6.5,47.8,19.6,70,32.7,31.4,18.7,63.2,38.7,93.9,58.2,24.2,15.4,49.2,31.1,74,46.2l3,1.8c23,14,46.7,28.5,70.3,41.6l2.1,1.2c13,7.3,26.4,14.8,40.2,14.8s3.7,0,5.5-.4c15.6-2.3,31.5-11.2,48.8-27,15.2-13.9,29.4-31,43.1-47.7,4.6-5.6,9-10.9,13.3-16,27.8-32.6,60.6-68.6,99.4-82.8,36.1-13.2,71.4.3,101.2,15.2,4.9,2.4,9.8,5,14.6,7.5,21.5,11.1,43.6,22.6,66.6,27.1,12.4,2.5,25.2,2.5,38,.2,3.2-.6,6.4-1.3,9.7-2.2v-2.2c-16.3,4.4-32.1,5.1-47.5,2.1-22.8-4.5-44.9-16-66.3-27-4.8-2.5-9.8-5-14.6-7.5-30-15-65.6-28.6-102-15.2-17.2,6.3-34.5,17.3-52.9,33.5-17.6,15.6-33.6,33.8-47.1,49.6-4.4,5.2-8.7,10.4-13.4,16-26.7,32.3-56.8,69-91.1,74.2-15.5,2.3-30.5-6.1-45.1-14.3l-2.1-1.2c-23.6-13.2-47.3-27.7-70.3-41.5l-3-1.8c-24.8-15.1-49.7-30.8-73.9-46.2-30.7-19.5-62.5-39.6-93.9-58.2-22.3-13.2-46.2-26.3-70.3-32.8-19.7-5.4-39.3-6-58.4-2-19.4,4.1-38.1,13.1-55.8,26.8C32.1,156.2,15.8,173.6,0,191.2v2.6c16.1-17.8,32.6-35.5,50.5-49.4,34.6-26.8,73.8-35.2,113.2-24.6h.2Z"/>
  <path class="cls-24" d="M96.6,131.2c21.2-5.8,43.8-5.6,67.4.5,25.6,6.7,50.4,19.9,73.6,33,46.7,26.8,93.6,57.1,139.1,86.4,10,6.4,20.3,13.1,30.4,19.6,8.4,5.4,16.9,11.1,25.1,16.6,13.5,9,27.4,18.4,41.3,26.7,13.2,7.9,26.2,14.9,39.7,14.9s4-.2,6.1-.5c20.3-3.2,38.9-18.5,52.9-31.4,15.7-14.5,30.4-31.5,44.8-48.1,3.2-3.7,6.5-7.5,9.7-11.2,30.1-34.3,63.1-68.1,100.5-82.1,36.2-13.6,70.1-1.3,101.3,14,5.7,2.8,11.5,5.8,17.1,8.6,21.1,10.9,42.8,22.1,65.3,25.8,15.4,2.6,31,1.4,46.8-3.3v-2.2c-15.8,4.8-31.4,6-46.7,3.4-22.4-3.7-44-14.9-65-25.7-5.6-2.9-11.4-5.9-17.1-8.7-20.1-9.8-35.6-15.4-50.5-18.1-18.5-3.4-35.3-2.1-51.7,4.1-17.4,6.5-34.7,17.5-53.2,33.4-17.8,15.5-34.1,33.4-47.8,49-3.2,3.7-6.5,7.5-9.7,11.2-14.3,16.5-29.1,33.5-44.7,47.9-13.9,12.8-32.3,28-52.3,31.1-15.5,2.5-30.1-5.3-45-14.3-13.9-8.3-27.8-17.6-41.2-26.6-8.2-5.5-16.7-11.2-25.1-16.6-10.2-6.5-20.5-13.2-30.4-19.6-45.4-29.3-92.3-59.6-139.1-86.4-23.2-13.3-48.1-26.5-73.8-33.1-23.7-6.2-46.5-6.4-67.9-.5-15.2,4.2-30.7,12.8-47.7,26.3C31.6,169.1,15.7,186.3.2,203.4v2.6c15.7-17.4,31.9-34.9,49.3-48.9,16.8-13.4,32.2-22,47.2-26.1h0Z"/>
  <path class="cls-13" d="M48.3,170.5c17-14,32.2-22.9,46.9-27.1,21.1-6.1,44.2-6,68.9.2,27.1,6.8,54,20.8,76.7,33.4,55,30.8,111.8,67,168.9,107.5,6.3,4.5,12.6,9.2,18.8,13.7,13.3,9.8,27,20,40.9,28.5,11.3,6.8,24.2,13.9,37.6,13.9s4.3-.2,6.4-.5c20.6-3.6,39.7-18.7,54.1-31.4,16.8-14.8,32.6-32.4,48-49.4,2.8-3.1,5.6-6.3,8.5-9.4,30.5-33.6,64.1-66.7,102-81.2,18.1-6.9,35-8.6,51.8-5.4,17.2,3.3,34,10.8,49.8,18.3,6.3,3,12.8,6.3,19,9.5,21.1,10.8,42.8,22,64.9,25,12.5,1.7,25.3.9,37.9-2.4,2.7-.7,5.5-1.5,8.2-2.5v-2.1c-15.4,5.3-30.7,7-46,4.9-21.9-3-43.5-14.1-64.5-24.9-6.3-3.2-12.8-6.5-19.1-9.6-15.8-7.6-32.8-15-50.1-18.4-17-3.3-34.1-1.5-52.4,5.4-17.5,6.7-35.1,17.6-53.8,33.2-18.3,15.4-35.6,33.8-48.7,48.2-2.8,3.1-5.6,6.2-8.5,9.4-15.4,17-31.1,34.5-47.8,49.3-14.3,12.7-33.3,27.7-53.5,31.1-15.5,2.7-30.4-5.4-43.3-13.2-13.9-8.5-27.7-18.6-40.8-28.4-6.1-4.5-12.5-9.2-18.8-13.7-57.1-40.6-114-76.8-169-107.6-22.8-12.8-49.7-26.8-77-33.5-24.8-6.2-48.1-6.3-69.4-.2-14.8,4.2-30.2,13.2-47.3,27.3-15.1,12.5-29.2,27.7-42.8,42.4-1.6,1.7-3.2,3.5-4.8,5.2v2.6c1.9-2.1,3.8-4.1,5.7-6.2,13.6-14.7,27.7-29.9,42.6-42.3v.3Z"/>
  <path class="cls-30" d="M47.5,184.2c17.4-14.8,32.1-23.8,46.5-28.2,20.9-6.4,44.4-6.5,69.9-.3,28.6,6.9,56.1,21,79.3,33.8,53.1,29.4,108.3,65.9,164.1,108.6,3.6,2.8,7.4,5.6,10.9,8.4,14.5,11.2,29.5,22.8,44.7,32.3,11.3,7.1,23.4,13.4,36.2,13.4s4.5-.2,6.8-.6c21-3.8,40.8-18.7,55.7-31.2,17.8-15,34.7-32.9,51.2-50.3,2.5-2.6,5-5.3,7.5-7.9,31-32.8,65.2-65.3,103.8-80.1,18.8-7.2,35-9.2,51.2-6.3,18,3.2,35.6,11,50.9,18.1,5.2,2.4,10.5,5,15.7,7.5,22.7,10.9,46,22.2,69.9,26.2,12.2,2,25,1.1,38-2.9,2.5-.8,5-1.7,7.6-2.7v-2.1c-15.6,6.2-30.7,8.1-45.4,5.6-23.8-4-47-15.2-69.6-26.1-5.1-2.5-10.5-5.1-15.7-7.5-15.3-7.1-33.1-15-51.2-18.2-16.4-2.9-32.8-.9-51.8,6.3-38.8,14.9-73.1,47.4-104.3,80.4-2.5,2.6-5,5.3-7.5,7.9-16.4,17.4-33.2,35.3-51,50.2-14.9,12.5-34.5,27.3-55.2,30.9-15.1,2.7-29.3-4.5-42.2-12.6-15.2-9.5-30.1-21.1-44.6-32.2-3.6-2.8-7.3-5.6-10.9-8.4-55.9-42.7-111.2-79.3-164.3-108.7-23.3-12.9-50.9-27-79.6-33.9-25.7-6.3-49.4-6.2-70.5.3-14.6,4.5-29.5,13.5-46.9,28.5-11.1,9.5-21.5,21-31.5,32-5,5.5-10.1,11.1-15.3,16.5v2.6c5.5-5.7,10.9-11.6,16.2-17.4,10.1-11.1,20.5-22.6,31.4-31.9h0Z"/>
  <path class="cls-67" d="M48.5,198.7c30-31.2,68.8-41.5,115.2-30.5,29.9,7.1,59.2,22.1,81.4,34.2,49.2,27.3,99.8,61.9,159.2,109,4,3.1,8,6.4,11.9,9.5,13.1,10.6,26.6,21.5,40.3,30.4,13,8.3,23.8,12.3,34.1,12.3s4.7-.2,7.1-.6c21.5-3.7,42.1-18.5,57.7-30.8,19.1-15.2,37.3-33.6,55-51.5,2-2,4-4.1,6.1-6.1,31.6-31.9,66.4-63.6,105.9-78.8,19.7-7.6,35.5-9.7,51.4-7,17.7,3,34.9,10.5,51.2,17.8,4.8,2.1,9.6,4.4,14.3,6.6,23.7,11.1,48.2,22.5,73.2,26,12.6,1.8,25.5.5,38.1-3.8,2.3-.8,4.6-1.7,7-2.7v-2.2c-15.2,6.5-30.1,8.7-44.9,6.6-24.9-3.5-49.2-14.9-72.9-25.9-4.7-2.2-9.5-4.4-14.3-6.6-16.4-7.4-33.7-14.9-51.5-17.9-16.2-2.8-32.1-.6-52,7.1-39.7,15.3-74.7,47-106.4,79.1-2,2-4,4.1-6.1,6.1-17.6,17.8-35.8,36.2-54.8,51.4-15.5,12.4-35.9,27-57.2,30.6-12.4,2.1-24.8-1.4-40.4-11.5-13.8-8.9-27.3-19.8-40.2-30.3-3.9-3.1-7.9-6.4-11.9-9.6-59.5-47.2-110.1-82-159.4-109.1-22.2-12.3-51.5-27.3-81.7-34.3-46.8-11.1-86-.6-116.3,30.9-5.8,6.1-11.6,12.5-17.2,18.7C20.7,226.6,10.7,237.7,0,247.3v2.5c11-9.9,21.3-21.3,31.3-32.4,5.6-6.2,11.4-12.6,17.2-18.7h0Z"/>
  <path class="cls-44" d="M53.2,213.9c13.4-16.2,25.9-26.1,39.2-31.1,20-7.6,43-8.2,70.6-1.9,24.3,5.5,49.8,16.2,82.8,34.6,49,27.4,99.6,63,154.5,108.9,4.4,3.7,8.9,7.6,13.5,11.8,11.5,10.2,23.4,20.8,35.7,28.3,11.4,6.9,21.9,10.3,31.7,10.3s4.7-.2,7-.6c22.2-3.7,43.6-18.2,59.9-30.3,20.2-15.2,39.5-33.7,58.2-51.7,1.8-1.7,3.5-3.4,5.3-5.1,32.2-30.9,67.7-61.7,108.3-77.4,20.6-7.9,36.7-10.3,52.5-7.6,17.1,2.9,33.8,9.9,50.8,17.4,4.3,1.9,8.6,3.8,12.8,5.8,24.8,11.2,50.4,22.8,76.5,25.7,15.3,1.7,30-.7,44.8-7.4v-2.2c-14.7,6.7-29.5,9.2-44.7,7.5-26-2.9-51.4-14.5-76.2-25.6-4.2-1.9-8.6-3.9-12.9-5.8-17.1-7.5-33.8-14.5-51.1-17.5-16-2.7-32.3-.3-53.1,7.7-40.9,15.8-76.5,46.6-108.8,77.7-1.8,1.7-3.5,3.4-5.3,5.1-18.7,18-37.9,36.5-58.1,51.6-16.1,12.1-37.4,26.5-59.4,30.1-26.3,4.4-50.3-17-73.6-37.6-4.7-4.2-9.1-8.1-13.6-11.8-55-46-105.6-81.7-154.7-109.1-33.1-18.5-58.7-29.2-83.1-34.7-27.8-6.4-51-5.7-71.2,2-13.7,5.2-26.4,15.3-39.8,31.6-15.4,18.6-32.2,37.6-52.2,51.8v2.3c20.4-14.4,37.5-33.7,53.2-52.5l.4-.2Z"/>
  <path class="cls-72" d="M60.8,229.8c9.8-13.1,20-26.7,33.1-32.5,18.6-8.3,40-9.3,67.8-3.2,30.8,6.8,61,22.3,83.8,34.9,50.8,28.3,101.3,64.7,150,108.1,3.8,3.4,7.7,7,11.4,10.5,20.1,18.8,40.7,38,64.6,38s4.5-.2,6.8-.5c23.1-3.6,45.3-17.8,62.2-29.8,21.3-15.1,41.6-33.7,61.4-51.8,1.5-1.4,3.1-2.8,4.6-4.2,31.1-28.5,68.7-59.7,111-76,15.4-5.9,33.7-11.5,53.7-8.2,16.7,2.8,32.7,9.3,50.4,17,3.8,1.6,7.7,3.3,11.5,5,25.9,11.3,52.6,23,79.8,25.4,13.2,1.1,26.3-.8,38.7-5.8,2-.8,4-1.7,6-2.7v-2.2c-14.4,7.1-29.2,9.9-44.6,8.6-27-2.3-53.6-14-79.4-25.3-3.8-1.6-7.7-3.4-11.5-5-17.8-7.7-33.9-14.2-50.7-17-20.2-3.4-38.7,2.3-54.2,8.2-42.4,16.3-80.1,47.6-111.4,76.2-1.5,1.4-3.1,2.8-4.6,4.2-19.7,18-40,36.6-61.3,51.7-16.8,11.9-38.8,26-61.7,29.6-26.3,4.1-48.7-16.9-70.5-37.1-3.7-3.5-7.6-7.1-11.4-10.5-48.8-43.5-99.3-80-150.2-108.3-22.9-12.8-53.1-28.3-84.1-35.1-28-6.2-49.7-5.2-68.5,3.3-13.5,6.1-23.8,19.8-33.7,33C41.7,252.4,21.4,268.6,0,280.2v2.1c.4-.2.8-.4,1.3-.7,23.7-13,43.1-29.9,59.6-51.8h0Z"/>
  <path class="cls-60" d="M70.9,246.2c2-2.7,3.9-5.7,5.8-8.5,6.7-10.1,13.7-20.5,22.7-25.2,22-11.6,46.7-8,63.5-4.4,24.6,5.4,50.5,16.2,84.3,34.9,51.5,28.8,99.7,64.7,143.3,106.7,3.5,3.4,7.1,7,10.5,10.5,8.9,9,18.2,18.3,28,25.6,9.8,7.2,20.4,10.9,31.5,10.9s5.2-.2,7.8-.6c19.6-2.8,40.4-11.9,63.7-27.8,20.5-13.9,40.1-31,59.1-47.7,3.3-2.9,6.8-6,10.2-8.9,29.7-25.8,69.5-57.4,113.8-74.5,19-7.3,35.1-11.6,52.5-9.1,18.4,2.6,36.4,10.2,52.4,16.9,3.4,1.4,6.9,2.9,10.2,4.3,26.9,11.4,54.7,23.2,82.9,24.9,15.5.9,30.3-2.3,44.6-9.6v-2.2c-14.3,7.4-29.2,10.7-44.5,9.8-28.1-1.7-55.7-13.5-82.6-24.9-3.4-1.4-6.8-2.9-10.2-4.3-16-6.7-34.1-14.3-52.7-17-17.6-2.5-33.9,1.9-53,9.2-44.5,17.1-84.4,48.8-114.1,74.7-3.4,2.9-6.8,5.9-10.2,8.9-36.9,32.2-78.8,68.8-122.2,75.1-14.1,2-26.7-1.3-38.5-10.1-9.7-7.2-18.9-16.5-27.8-25.5-3.5-3.5-7-7.1-10.6-10.5-43.6-42.1-91.8-78.1-143.6-106.9-33.8-18.9-59.9-29.8-84.6-35-16.9-3.7-42-7.3-64.2,4.5-9.3,4.9-16.4,15.5-23.3,25.7-1.9,2.8-3.9,5.8-5.8,8.5-19.2,26.6-43.5,42.1-69.9,52.1v2.2c2.1-.8,4.1-1.6,6.2-2.4,27.4-11.4,48.5-27.9,64.8-50.4h0Z"/>
  <path class="cls-57" d="M83,262.9c2.6-3.7,5.2-8,7.6-12.1,5.2-8.9,10.7-18.1,17.7-22.5,19.2-12.1,41.7-9.4,59.2-5.6,24.1,5.2,49.5,15.9,82.6,34.5,51,28.9,96.3,64.2,134.8,104.9,3.1,3.3,6.3,6.8,9.3,10.2,7.9,8.8,16,17.8,24.8,24.7,9,7,19.4,10.5,30.9,10.5s5.5-.2,8.3-.6c20.2-2.8,41.7-11.7,65.9-27.3,21.3-13.8,41.8-30.7,61.6-47.2,3.3-2.8,6.7-5.5,10-8.2,44.3-36.5,80.4-59,116.7-72.9,17.5-6.7,34.6-12.4,53.7-9.8,18,2.5,36.1,9.9,52.1,16.5,3,1.2,6.1,2.5,9.1,3.8,27.9,11.5,56.6,23.5,85.9,24.5,13.7.5,27-2.2,39.5-8.1,1.7-.8,3.5-1.7,5.2-2.6v-2.3c-14.1,7.7-29.2,11.4-44.6,10.9-29-1-57.7-12.9-85.5-24.4-3-1.3-6.1-2.5-9.1-3.8-16.1-6.6-34.2-14-52.4-16.6-19.3-2.7-36.6,3.1-54.2,9.8-36.4,14-72.6,36.4-117,73.1-3.3,2.7-6.6,5.5-10,8.2-40.3,33.4-82.1,68.1-127,74.2-14.7,2-27.7-1.3-38.4-9.7-8.7-6.8-16.7-15.8-24.6-24.5-3.1-3.4-6.2-6.9-9.3-10.2-38.5-40.8-84-76.3-135.1-105.2-33.1-18.8-58.7-29.5-82.9-34.6-17.7-3.8-40.5-6.6-60,5.8-7.3,4.6-12.9,14-18.2,23.1-2.5,4.3-5,8.4-7.5,12-19.5,27.1-47.4,38.7-72.2,46.5-3.2,1-6.5,2-9.8,2.9v2.1c3.4-.9,6.8-1.9,10.1-3,25-7.9,53.1-19.7,72.9-47h0Z"/>
  <path class="cls-58" d="M96.4,280c3.3-4.3,6.2-9.6,9.1-14.8,4.3-7.8,8.7-15.9,14.4-20.5,15.9-12.9,36.4-10.7,54.4-6.9,23.3,4.9,47.8,15.4,79.8,33.8,50.1,29.2,91,62.8,124.9,102.9,2.6,3.1,5.3,6.4,7.8,9.7,6.9,8.7,14.1,17.6,22.1,24.2,8.4,6.9,18.4,10.3,30.3,10.3s5.9-.2,9-.6c20.6-2.6,42.6-11.2,67.3-26.4,21.8-13.4,42.9-30,63.3-46.2,3.6-2.9,7.3-5.8,11-8.7,43.6-34.1,81.7-56.9,119.7-71.5,18.6-7.1,35.3-12.8,53.4-10.6,18.2,2.2,36,9.4,53.3,16.3,2.7,1.1,5.5,2.2,8.2,3.3,28.8,11.6,58.5,23.7,88.6,24,13.9.2,27.4-3,39.9-9.4,1.6-.8,3.2-1.7,4.8-2.6v-2.2c-14,8.2-29,12.3-44.7,12.1-29.9-.3-59.5-12.3-88.2-23.9-2.7-1.1-5.5-2.2-8.2-3.3-17.4-7-35.2-14.2-53.6-16.4-18.3-2.2-35.2,3.5-53.9,10.7-38.2,14.7-76.4,37.4-120,71.6-3.6,2.9-7.4,5.8-11,8.7-41.4,32.7-84.3,66.6-130.1,72.4-15.8,2-28.5-1.1-38.5-9.4-7.9-6.4-15-15.3-21.8-23.9-2.6-3.2-5.2-6.6-7.9-9.7-34-40.3-75-74.1-125.3-103.2-32-18.6-56.7-29.1-80.1-34-18.2-3.8-39-6-55.3,7.2-5.9,4.8-10.4,13-14.8,21-2.8,5.1-5.7,10.4-8.9,14.6-21.2,27.6-52.4,36.7-80.2,43.2-5,1.2-10.1,2.2-15.3,3.1v2.1c5.3-.9,10.5-2,15.5-3.2,27.9-6.5,59.5-15.9,80.9-43.7h0Z"/>
  <path class="cls-36" d="M67.8,326.4c18-6.8,32-16.3,42.9-29.1,4.1-4.8,7.5-11.1,10.7-17.1,3.7-6.8,7.4-13.8,12.2-18.6,13.2-13.3,31.4-11.9,49.2-8.4,27.8,5.5,55.1,20.6,75.9,32.9,47.7,28.7,85,61.6,114.1,100.7,2.1,2.8,4.2,5.9,6.3,8.8,6.1,8.7,12.5,17.8,19.9,24.1,9.4,8,20.3,10.1,30.1,10.1s6.7-.2,9.8-.6c45.9-4.9,89.2-37.5,130.9-69.1,4.7-3.5,9.5-7.2,14.2-10.7,42.4-31.6,82.6-54.6,122.8-70.1,18.2-7,35.3-13.6,54.5-11.3,18,2.1,35.7,9.2,53,16h0l7.5,3c29.6,11.7,60,23.9,90.8,23.5,14.1-.2,27.8-3.8,40.4-10.7,1.5-.8,3-1.7,4.4-2.6v-2.4c-14.1,8.7-29.2,13.3-44.9,13.5-30.6.4-61.1-11.7-90.4-23.4l-7.5-3h0c-17.3-6.9-35.1-13.9-53.3-16.1-19.4-2.3-37.5,4.7-55,11.4-40.3,15.5-80.6,38.5-123.1,70.2-4.7,3.5-9.6,7.2-14.2,10.7-41.6,31.4-84.7,64.1-130.3,68.9-11.7,1.2-26.8,1.3-39-9.2-7.3-6.2-13.5-15.1-19.6-23.8-2.1-2.9-4.2-6-6.3-8.8-29.3-39.3-66.7-72.5-114.5-101.1-20.9-12.5-48.3-27.6-76.3-33.1-18.1-3.6-36.6-5-50.2,8.7-4.9,4.9-8.7,12.1-12.5,19-3.2,6-6.6,12.1-10.5,16.8-24.9,29.3-63.5,35.6-89.1,39.8-6.8,1.1-13.7,2-20.9,2.7v2.1c7.2-.7,14.2-1.6,21-2.7,15.2-2.5,31.3-5.4,46.8-11.3v.2Z"/>
  <path class="cls-65" d="M79.8,340.6c16.1-5.2,32.7-12,45.8-25.9,5-5.3,9-12.4,12.8-19.2,3.3-5.8,6.7-11.9,10.7-16.7,11.7-14.2,29.7-12.7,44-9.8,27,5.5,53.6,20.9,71.3,31.9,44.3,27.8,77.9,60,102.5,98.4,1.6,2.4,3.1,5,4.7,7.5,5.5,9,11.2,18.3,18.3,24.5,9,7.9,19.8,10,30.1,10s7.2-.2,10.6-.6c45.7-4.6,89-36,130.8-66.4,5.6-4,11.3-8.2,16.9-12.2,41.1-29.4,82.3-51.8,125.9-68.8l2.1-.8c17.7-6.9,34.4-13.4,52.9-11.4,18.1,2,35.9,9,53.3,15.7h.2c2.3,1,4.7,1.9,7,2.8,30.1,11.8,61.4,24.1,92.8,23,14.3-.5,28.2-4.5,41-12,1.4-.8,2.7-1.6,4-2.5v-2.4c-14,9.2-29.3,14.2-45,14.7-31.2,1-62.4-11.2-92.4-23-2.3-.9-4.7-1.8-7-2.7h-.2c-17.4-6.9-35.3-13.9-53.6-15.9-18.7-2.1-35.5,4.5-53.4,11.5l-2.1.8c-43.7,17-85,39.5-126.1,68.9-5.6,4-11.4,8.2-16.9,12.2-41.7,30.3-84.9,61.7-130.3,66.2-13.1,1.3-28.2,1.3-39.9-9.1-6.9-6-12.5-15.2-18-24.1-1.5-2.5-3.1-5.1-4.7-7.6-13.6-21.2-29.4-39.9-48.2-57.4-16-14.9-33.9-28.4-54.8-41.4-17.8-11.2-44.5-26.6-71.7-32-14.7-3-32.9-4.5-45.1,10.2-4.1,5-7.6,11.1-10.9,17-3.8,6.7-7.7,13.7-12.5,18.8-12.9,13.7-29.4,20.4-45.2,25.6-15.7,5.1-33.1,8.7-53.2,10.8-8.7.9-17.4,1.5-26.4,1.8v2.1c9-.3,17.8-.9,26.5-1.8,20.2-2.2,37.6-5.7,53.4-10.9v.2Z"/>
  <path class="cls-43" d="M31.5,365.2c21.7-1.3,40.7-4.2,58.1-8.8,16.6-4.4,35.4-10.2,50.6-24.4,6.6-6.2,11.7-14.4,16.5-22.4,2.7-4.5,5.6-9.2,8.7-13.5,10.4-14.4,25.5-13.7,38.9-11.2,24.2,4.5,47.9,18.8,66,30.7,40.8,27.1,69.6,57.5,90.5,96,1,1.8,2,3.7,2.9,5.5,5.2,9.8,10.6,20,18.1,26.3,8.8,7.5,19.3,9.5,29.9,9.5s7.7-.3,11.6-.6c44.9-4.3,87.7-34.4,129.1-63.5,6.7-4.7,13.6-9.6,20.3-14.2,38.9-26.7,81.1-48.8,128.9-67.7,1.5-.6,3-1.2,4.5-1.8,16.8-6.7,32.6-13.1,50.2-11.4,18.5,1.7,36.7,8.8,54.4,15.6h.3c2.3,1,4.5,1.9,6.8,2.8,30.7,12,62.5,24.3,94.4,22.6,14.6-.8,28.6-5.2,41.5-13.3,1.2-.8,2.4-1.6,3.6-2.4v-2.4c-14,9.6-29.3,15.1-45.2,15.9-31.7,1.7-63.5-10.6-94-22.5-2.3-.9-4.5-1.8-6.8-2.6h-.3c-17.8-7-36-14.1-54.7-15.8-17.8-1.6-33.7,4.7-50.7,11.5-1.5.6-3,1.2-4.5,1.8-47.8,18.9-90,41.1-129.1,67.8-6.7,4.6-13.6,9.5-20.3,14.2-41.2,29.1-83.9,59-128.5,63.3-14.3,1.4-29.1,1.3-40.7-8.6-7.2-6.1-12.5-16.1-17.6-25.8-1-1.8-2-3.7-3-5.5-11.4-21-25.1-39.4-41.8-56.5-14.2-14.5-30.2-27.6-49.3-40.1-18.2-12-42.1-26.4-66.4-30.9-13.8-2.6-29.3-3.2-40,11.8-3.2,4.4-6,9.1-8.8,13.6-5,8.2-9.8,16-16.2,22-15,13.9-33.7,19.7-50.1,24.1-17.4,4.6-36.3,7.5-57.9,8.8-10.4.6-20.9.8-31.5.5v2.1c10.7.2,21.3,0,31.5-.6h0Z"/>
  <path class="cls-54" d="M36.3,378.9c23.5-.5,44.3-2.7,63.6-7,17.7-3.9,37.9-9.1,54.7-22.6,9.5-7.6,16.5-18.2,23.8-29.4,1.3-2,2.7-4.1,4.1-6.2,9.9-14.8,22.9-14.7,34.2-12.6,22.3,4.1,43.9,17.9,60.2,29.5,35.5,25.2,61.2,55.8,78.6,93.6.3.7.7,1.5,1,2.2,5.1,11.1,10.3,22.6,18.5,29.3,9.1,7.4,20.2,9.4,31,9.4s8.1-.3,12-.7c43.5-4.2,85.3-32.8,125.6-60.6,8-5.5,16.3-11.2,24.3-16.5,46.8-30.9,95-51.9,131.8-66.8,2.1-.8,4.1-1.7,6.2-2.5,16.4-6.7,31.8-13.1,49-11.7,18.6,1.5,37,8.7,54.9,15.5h.3c2.3,1,4.6,1.9,6.9,2.8,31,12.1,63.2,24.5,95.5,22.3,16.1-1.1,31.2-6.8,45.2-16.8v-2.3c-14,10.1-29.3,15.9-45.3,17-32.1,2.3-64.2-10.2-95.1-22.2-2.3-.9-4.6-1.8-6.9-2.7h-.3c-17.9-7-36.4-14.2-55.1-15.7-17.5-1.4-33,5-49.5,11.8-2,.8-4.1,1.7-6.2,2.5-36.8,14.9-85.1,35.8-132,66.9-8,5.3-16.3,11-24.3,16.5-40.2,27.7-81.8,56.2-125,60.4-14.1,1.4-30.1,1.4-42.2-8.5-7.9-6.5-13-17.7-18-28.6-.3-.7-.7-1.5-1-2.2-9.5-20.7-21.1-38.7-35.4-55.3-12.5-14.4-26.8-27.2-43.7-39.1-16.5-11.7-38.2-25.6-60.7-29.7-11.7-2.1-25.1-2.2-35.4,13.2-1.4,2.1-2.8,4.2-4.1,6.2-7.3,11.1-14.1,21.5-23.5,29-16.6,13.3-36.7,18.5-54.2,22.3-19.2,4.2-39.9,6.5-63.4,6.9-12.1.2-24.2,0-36.3-.9v2.1c12.2.9,24.3,1.2,36.3.9v.3Z"/>
  <path class="cls-33" d="M108.1,387.4c19-3.4,40.7-8,59.7-21.1,10.8-7.4,20.6-18.3,31.5-35,8-12.2,16.7-16.2,30-13.9,20.4,3.5,40.6,17.8,54.2,28.1,18.1,13.9,32.4,28.8,44,45.5,10.3,15,17.7,32.3,22.9,45.9,4.8,12.6,10,24.4,19.1,31.3,9.7,7.4,21.5,9.4,32.3,9.4s8.6-.3,12.5-.7c24.5-2.5,48.3-14.5,70.5-27,18.4-10.4,36.6-22.4,54.2-34,7.9-5.2,16.1-10.6,24.2-15.8,45.2-29,92.7-48.7,134.6-66.1,2.4-1,4.9-2.1,7.2-3.1,16.4-7,31.7-13.6,49-12.2,18.8,1.5,37.1,8.7,54.8,15.5,2.4.9,4.8,1.9,7.2,2.8,31.2,12.2,63.6,24.8,96.2,22,16.2-1.4,31.3-7.5,45.3-17.8v-2.4c-13.9,10.5-29.2,16.7-45.3,18.1-32.3,2.8-64.6-9.8-95.7-21.9-2.4-.9-4.8-1.9-7.2-2.8-17.9-6.9-36.2-14.1-55.1-15.6-17.6-1.4-33,5.2-49.5,12.3-2.4,1-4.8,2.1-7.2,3.1-41.9,17.5-89.5,37.2-134.8,66.2-8.1,5.2-16.3,10.6-24.2,15.8-17.7,11.6-35.8,23.7-54.2,33.9-22.1,12.5-45.8,24.4-70,26.9-13.6,1.4-30.8,1.7-44.1-8.5-8.8-6.7-13.7-18.3-18.5-30.4-5.3-13.7-12.7-31.2-23.1-46.3-11.7-17-26.2-31.9-44.3-45.9-13.6-10.5-34-24.8-54.7-28.4-13.9-2.4-23,1.8-31.2,14.5-10.9,16.7-20.6,27.4-31.1,34.6-18.8,12.9-40.4,17.5-59.2,20.9-20.8,3.7-42.8,5.3-67.5,4.9-13.6-.2-27.1-1.1-40.5-2.6v2.1c13.5,1.5,27,2.4,40.5,2.6,24.7.4,46.8-1.3,67.7-5h-.2Z"/>
  <path class="cls-34" d="M115.1,402.7c21.5-3.1,44-7.6,64.4-19.6,14-8.2,26.4-20.1,36-34.4,8.8-13,15.6-16.8,26.8-15,13.8,2.2,29.1,10.7,47.9,26.8,16.4,13.9,29,29,38.5,46.1,6.9,12.4,11.5,26.1,16.4,40.6l.9,2.7c5.4,16,11.5,25.8,19.8,31.4,10.7,7.4,23.1,9.4,33.8,9.4s9.3-.4,13.2-.8c24.3-2.8,48.1-15.7,68.5-27.6,16.1-9.4,32.1-19.9,47.7-30,9.9-6.5,20.1-13.1,30.1-19.4,37.5-23.5,77.2-40.2,115.4-56.4,7.2-3,14.6-6.2,21.8-9.3,2.9-1.2,5.7-2.5,8.5-3.8,15.8-7.1,30.6-13.8,47.5-12.7,19.3,1.3,38.7,8.9,55.9,15.6,2.6,1,5.1,2,7.7,3,31.3,12.4,63.7,25.2,96.3,21.9,15.2-1.5,29.7-7.3,42.9-17.1.8-.6,1.5-1.1,2.3-1.7v-2.4c-13.9,10.9-29.2,17.4-45.3,19.1-32.4,3.3-64.7-9.5-95.9-21.8-2.6-1-5.1-2-7.7-3-17.3-6.8-36.8-14.4-56.2-15.7-17.1-1.1-32,5.6-48,12.8-2.8,1.2-5.6,2.5-8.5,3.7-7.3,3.1-14.7,6.3-21.8,9.3-38.3,16.3-77.9,33-115.5,56.5-10.1,6.3-20.3,13-30.1,19.5-15.6,10.2-31.6,20.7-47.6,29.9-20.3,11.8-43.9,24.6-68.1,27.4-12.6,1.5-31.1,2.2-46.3-8.4-8-5.5-13.9-15-19.1-30.5l-.9-2.7c-4.9-14.7-9.6-28.6-16.6-41-9.7-17.4-22.4-32.5-38.9-46.6-19.1-16.2-34.5-24.8-48.5-27-11.6-1.9-18.9,2.2-28,15.7-9.5,14.1-21.9,25.9-35.5,33.9-20.2,11.9-42.7,16.4-64,19.4-22.3,3.2-45.4,4.2-71,3.1-14.9-.7-29.6-2.1-44-4.2v2.1c14.5,2.1,29.2,3.5,43.9,4.2,25.6,1.1,48.9,0,71.2-3.1h0Z"/>
  <path class="cls-75" d="M118.7,419c27.1-2.7,50.1-9.1,70.5-19.5,17.3-8.8,31.1-20.2,41-33.6,8.3-11.3,13.6-17.6,24.7-16,12.1,1.8,25.8,10.1,41.8,25.4,13.3,12.6,23.7,27.1,31,42.9,4.5,9.7,7.6,20.6,10.6,31.1,1.3,4.5,2.6,9.1,4,13.6,5.7,18,16,30.2,30.7,36.3,7.4,3,15.8,4.6,25.3,4.6s9.7-.4,14.9-1.1c23.6-3.4,46.6-16,66.1-27.9,13.2-8,26.5-16.8,39.2-25.2,12.2-8.1,24.9-16.4,37.3-24.1,32.9-20.2,67.5-34.8,101-49,12.7-5.4,25.8-10.9,38.5-16.7,3.1-1.4,6.3-2.9,9.3-4.3,15.6-7.3,30.2-14.3,47.1-13.3,19.6,1.1,39,8.9,56.2,15.7,2.9,1.1,5.7,2.3,8.6,3.5,31.1,12.6,63.4,25.6,95.8,21.8,15.4-1.8,29.9-7.9,43.3-18.3.6-.5,1.2-.9,1.8-1.4v-2.3c-13.8,11.2-29,18-45.2,19.9-32.2,3.7-64.3-9.2-95.3-21.7-2.9-1.2-5.8-2.3-8.6-3.5-17.3-6.9-36.7-14.7-56.5-15.8-17.1-1-31.8,6-47.6,13.4-3,1.4-6.1,2.9-9.3,4.3-12.8,5.8-25.9,11.3-38.5,16.7-33.5,14.2-68.2,28.9-101.1,49.1-12.6,7.7-25.2,16-37.4,24.1-12.8,8.5-26.1,17.2-39.2,25.2-19.4,11.8-42.3,24.3-65.7,27.7-36.3,5.3-59.7-7.7-69.4-38.5-1.4-4.5-2.7-9.1-4-13.5-3-10.6-6.2-21.6-10.8-31.4-7.5-16.2-18.1-30.8-31.4-43.5-16.3-15.5-30.1-23.9-42.4-25.7-11.7-1.7-17.4,5.2-25.8,16.6-9.8,13.3-23.5,24.5-40.5,33.1-44.6,22.7-96.8,22.6-142.2,19.4-15.8-1.1-31.3-3-46.5-5.8v2.1c15.2,2.7,30.7,4.6,46.5,5.8,19.9,1.4,45.9,2.6,72.2,0v-.2Z"/>
  <path class="cls-9" d="M123,433.1c27.6-2.4,51.6-8.2,73.5-17.8,19.9-8.7,35.2-19.4,46.9-32.6,1.5-1.7,2.9-3.5,4.3-5.2,5.9-7.3,10.5-13,19.2-11.6,10.8,1.7,22.9,9.8,35.8,24,11.2,12.2,19.7,26.6,25.4,42.7,2.6,7.3,4.4,15.3,6.2,23,1.6,6.9,3.2,14,5.4,20.6,5.8,17.8,16.8,29.9,32.7,36.1,8.9,3.4,18,4.5,25.9,4.5s11.7-.7,15.5-1.3c23-3.9,45.5-17.1,65.4-28.8,13.4-7.9,26.7-17,39.5-25.7,11.4-7.8,23.2-15.8,34.8-22.9,29.9-18.1,61.2-31.3,91.6-44.1,16.5-6.9,33.4-14.1,50-22,3.9-1.9,7.9-4,11.7-6.2,6.5-3.5,13.1-7.2,19.9-9.5,7.9-2.7,16.6-3.8,25.8-3.2,18,1,35.6,8,52.8,14.7l3,1.2c4.5,1.8,9.1,3.6,13.5,5.4,29.6,12,60.1,24.3,91,20.5s30.1-8.5,43.6-19.5c.4-.3.8-.6,1.2-1v-2.5c-13.8,11.7-29,18.8-44.9,20.8-30.7,3.8-61.1-8.5-90.5-20.4-4.4-1.8-9-3.6-13.5-5.4l-3-1.2c-17.2-6.8-35-13.8-53.1-14.8-9.4-.5-18.2.6-26.2,3.3-6.8,2.3-13.5,6-20,9.6-3.8,2.1-7.8,4.3-11.7,6.1-16.6,7.9-33.5,15-50,21.9-30.4,12.8-61.9,26.1-91.7,44.1-11.8,7.1-23.5,15.2-34.8,22.9-12.9,8.8-26.2,17.9-39.5,25.7-19.8,11.6-42.2,24.8-65,28.7-13.4,2.3-58.3,6.2-72.6-38.1-2.1-6.6-3.8-13.6-5.3-20.4-1.8-7.8-3.7-15.8-6.3-23.3-5.8-16.5-14.4-31-25.8-43.4-13.2-14.5-25.5-22.7-36.5-24.5-9.3-1.5-14.4,4.8-20.3,12.1-1.4,1.7-2.7,3.4-4.3,5.1-11.6,13.1-26.8,23.7-46.4,32.2-51.2,22.5-109,20.2-148,16.6-16.4-1.5-32.4-4-48.1-7.2v2.1c15.6,3.2,31.6,5.7,48,7.2,28.5,2.7,52.9,3,75,1.1v.4Z"/>
  <path class="cls-21" d="M862.4,398.9c-5.1-1.6-10.4-3.1-15.4-4.6-12.3-3.6-24.9-7.3-37.2-11.9-4-1.5-8-3.1-11.9-4.6-14.7-5.8-29.9-11.8-45.3-13.9-9.4-1.3-17.6-.9-25,1.3-7.3,2.2-14.5,6.4-21.4,10.5-3.7,2.2-7.6,4.5-11.4,6.4-19.1,9.5-38.6,17.7-57.7,25.7-28.5,11.9-57.9,24.2-85.9,41.1-13.8,8.4-27.8,17.7-41.2,26.6-10.1,6.7-20.5,13.6-30.7,20.1-16.5,10.4-36.4,23.1-57,29h6.7c16.7-5.9,33.1-15.8,50.8-27.1,10.3-6.5,20.8-13.5,30.8-20.2,13.5-8.9,27.4-18.2,41.1-26.6,27.9-16.9,57.2-29.2,85.7-41,19-8,38.6-16.2,57.7-25.7,3.9-1.9,7.7-4.2,11.5-6.4,6.9-4.1,14-8.2,21.2-10.4,7.3-2.2,15.3-2.6,24.6-1.3,15.3,2.1,30.4,8.1,45,13.9,3.9,1.5,7.9,3.1,11.9,4.6,12.4,4.6,25.1,8.3,37.3,11.9,5.1,1.5,10.3,3,15.4,4.6,19.9,6.1,36.1,8,51.1,6,15.8-2.1,30.8-9.3,44.4-21.1v-2.5c-13.6,12-28.8,19.3-44.5,21.4-14.9,2-31,0-50.7-6v.2Z"/>
  <path class="cls-39" d="M200.8,430.6c22-8.5,39.3-18.8,53-31.5,2.1-2,4.1-4.2,6-6.4,5.5-6.2,10.6-12,18.1-10.8,9.5,1.5,20,9.4,30.3,22.8,8.8,11.4,15.7,26.2,19.9,42.6,1.2,4.7,2.2,9.5,3.1,14.2,1.9,9.7,3.9,19.8,8,28.7,7.6,16.6,18.2,28.2,31.4,34.5h5c-15.1-5.6-26.9-17.5-35.1-35.6-4-8.7-5.9-18.1-7.9-28.1-.9-4.7-1.9-9.6-3.1-14.3-4.3-16.9-11.3-31.9-20.3-43.5-10.7-13.9-21.2-21.7-31.1-23.3-8.1-1.3-13.4,4.8-19.1,11.3-1.9,2.1-3.8,4.3-5.9,6.3-13.5,12.7-30.7,22.9-52.5,31.3-42.3,16.4-92,21-151.9,14.1-16.6-1.9-32.7-4.7-48.5-8.4v2.1c15.7,3.7,31.8,6.5,48.4,8.4,60.1,6.9,109.9,2.3,152.4-14.1l-.2-.3Z"/>
  <path class="cls-38" d="M124.7,460.4c26.9-1.8,52.5-6.8,76.4-15s43.5-18.3,60-30.6c2.5-1.9,5-4.3,7.4-6.6,5.9-5.7,12-11.6,18.9-10.6,8.2,1.1,16.7,8.4,25.4,21.6,8.6,13.1,12.1,29.6,15.8,47,2.7,12.9,5.6,26.3,10.7,38,3.6,8.4,7.9,15.1,12.7,20.5h2.4c-5.2-5.5-9.9-12.6-13.9-21.6-5-11.5-7.8-24.8-10.5-37.5-3.6-16.9-7.3-34.4-16.1-47.8-8.9-13.6-17.8-21.1-26.3-22.3-7.4-1-13.7,5.1-19.9,11-2.5,2.4-4.8,4.7-7.3,6.5-16.5,12.3-35.9,22.3-59.7,30.4-45.5,15.7-95.6,19.6-153.1,11.8C31.2,453,15.4,449.9,0,445.9v2.1c15.4,4,31.2,7.1,47.4,9.3,27.1,3.7,53.1,4.7,77.3,3.1h0Z"/>
  <path class="cls-63" d="M864.4,413l-1.7-.3c-17-3-34.4-7.7-51.6-13.9-5.8-2.1-11.6-4.4-17.3-6.6-12.9-5.1-26.1-10.4-39.4-13.2-10.1-2.2-18.4-2.5-26.2-1-8.3,1.6-16.3,6.1-24,10.5-2.8,1.6-5.6,3.2-8.4,4.7-19.9,10.3-40.5,19.1-60.4,27.5-28.1,11.9-57.1,24.3-84.6,41-23.1,14.2-46.8,29.5-70.5,45.3-9.4,6.3-18.7,12.4-28.1,17.7h3.9c8.2-4.8,16.5-10.2,24.7-15.8,23.7-15.9,47.4-31.1,70.5-45.3,27.4-16.8,56.3-29.1,84.4-40.9,20-8.5,40.5-17.2,60.5-27.6,2.8-1.5,5.7-3.1,8.5-4.7,7.7-4.4,15.6-8.9,23.7-10.4,7.7-1.4,15.9-1.1,25.8,1,13.3,2.9,26.5,8.1,39.2,13.2,5.7,2.2,11.5,4.6,17.3,6.7,17.3,6.3,34.7,10.9,51.8,14l1.7.3c16.3,2.9,33.1,5.9,49.6,3.6,15.6-2.2,30.4-9.5,43.9-21.5v-2.5c-13.5,12.2-28.4,19.7-44,21.9-16.3,2.2-33-.7-49.3-3.6h0Z"/>
  <path class="cls-7" d="M196.8,460.9c23.8-8.1,46.6-18.6,67.9-31.2,2.9-1.7,5.9-4,9-6.5,7-5.5,14.3-11.2,21.5-10.4,7.3.8,14.4,7.8,21.2,20.6,6.5,12.5,9.1,27.7,11.8,43.8,2.4,14.2,4.9,28.8,10.3,41.2.9,2.2,1.9,4.2,2.9,6.1h1.8c-1.2-2.3-2.4-4.7-3.5-7.2-5.3-12.2-7.7-26.7-10.1-40.6-2.6-15.7-5.4-31.7-12.1-44.6-7-13.4-14.5-20.6-22.2-21.5-7.5-.8-15,5-22.3,10.7-3.1,2.4-6,4.7-8.9,6.4-21.3,12.6-44,23.1-67.7,31.1-45.1,15.4-94.3,18.3-150.4,8.8-16.1-2.7-31.3-6.2-46-10.3v2.1c14.7,4.1,29.9,7.6,45.8,10.3,56.2,9.6,105.6,6.7,150.9-8.8h0Z"/>
  <path class="cls-22" d="M812.1,416.1c-7.7-2.6-15.5-5.8-23-8.8-11.1-4.5-22.5-9.1-33.8-12.2-10.3-2.8-18.7-3.8-26.4-3.2-8.6.7-16.8,4.9-24.8,8.9s-4.8,2.4-7.3,3.6c-16.6,7.7-33.5,15-49.9,22-31.5,13.5-64.1,27.4-95.1,44.9-19.5,11-38.6,24.7-57.2,37.8-4.4,3.2-9,6.4-13.6,9.6-2.9,2-5.7,4-8.6,6h3.4c1.9-1.3,3.9-2.7,5.8-4.1,4.5-3.2,9.1-6.5,13.6-9.6,18.5-13.2,37.6-26.9,57-37.7,30.9-17.5,63.5-31.3,94.9-44.8,16.5-7,33.4-14.3,50-22,2.4-1.1,4.9-2.4,7.3-3.6,7.9-4,16-8.1,24.4-8.8,7.6-.6,15.9.4,26.1,3.2,11.4,3.1,22.8,7.7,33.7,12.2,7.5,3,15.4,6.2,23.1,8.8,36.6,12.6,71.2,16.7,102.6,12.2,15.3-2.2,29.8-9.5,43.2-21.8v-2.4c-13.3,12.4-27.9,20-43.3,22.1-31.3,4.4-65.7.3-102.2-12.2h.1Z"/>
  <path class="cls-73" d="M189.9,477.4c23.9-8.1,46.9-19.1,74.3-33.2,7.6-4,15.4-8.1,22.2-11.7.4-.2.8-.4,1.1-.6,4.4-2.4,9-4.8,13.3-4.2,7.1,1.1,13,7.6,17.9,19.9,3.7,9.1,5,20.4,6.2,31.2.3,2.7.6,5.5,1,8.2,1.6,12.7,3.8,25.8,7.8,37.6h1.6c-4.2-11.9-6.3-25.3-8-38-.3-2.7-.7-5.5-1-8.2-1.3-11.1-2.6-22.5-6.4-31.9-5.2-12.8-11.4-19.7-19-20.9-4.6-.7-9.5,1.9-13.9,4.3-.4.2-.8.4-1.1.6-6.8,3.6-14.5,7.7-22.2,11.7-27.3,14.2-50.3,25.2-74.2,33.2-44.7,15.1-92.4,16.7-146.1,5.1-15.4-3.3-29.9-7.1-43.5-11.4v2.1c13.6,4.2,28.1,8,43.3,11.3,53.8,11.7,101.7,10,146.6-5.1h0Z"/>
  <path class="cls-55" d="M813.3,434.1c-9.7-3.1-19.5-7.1-28.9-11-9.2-3.8-18.7-7.7-28.2-10.8-10.6-3.5-18.8-5.1-26.6-5.2h-.4c-8.8,0-17.2,3.6-25.3,7.2-2,.9-4,1.8-6.1,2.6-10.6,4.3-21.4,8.5-31.7,12.6-37.6,14.8-76.6,30-113.2,51.5-19.1,11.2-37.7,25.1-55.8,38.5-2.3,1.7-4.6,3.4-6.9,5.1h3.2c1.5-1.1,2.9-2.2,4.4-3.3,18.1-13.5,36.7-27.4,55.7-38.4,36.5-21.4,75.5-36.6,113-51.4,10.5-4.1,21.3-8.3,31.8-12.6,2-.8,4.1-1.7,6.1-2.6,8.5-3.7,16.6-7.2,25.3-7.1,7.7,0,15.8,1.7,26.3,5.1,9.4,3.1,18.9,7,28.1,10.8,9.5,3.9,19.3,7.9,29,11.1,33.7,10.9,69.2,12.9,102.3,5.8,15.4-3.3,29.6-10.9,42.2-22.5v-2.6c-12.7,12-27,19.8-42.4,23.1-33,7-68.2,5-101.8-5.8h0Z"/>
  <path class="cls-26" d="M111.4,505.9c24,0,47-3.7,69.4-11.2,25.9-8.6,51.1-21,79.1-35,3.3-1.7,6.7-3.6,10.3-5.7,11.4-6.6,23.1-13.3,33.4-11.9,7.2,1,11.9,7.2,15,19.4,2.7,10.9,3.8,22.6,4.9,33.9.9,9.7,1.9,19.7,3.8,29.2h1.5c-2-9.7-3-19.7-3.9-29.5-1.1-11.5-2.3-23.4-5-34.3-3.2-13-8.4-19.6-16.2-20.7-10.8-1.5-23.2,5.7-34.1,12-3.6,2.1-7,4-10.3,5.7-28,14.1-53.1,26.4-78.9,34.9-43.5,14.5-89.5,14.9-140.4,1-14.4-3.9-27.7-8-40.1-12.3v2.2c12.4,4.3,25.7,8.4,39.9,12.3,25,6.8,48.7,10.2,71.6,10.2v-.2Z"/>
  <path class="cls-8" d="M814.5,452.7c-11.7-3.5-23.4-8.5-34.7-13.3-7.6-3.2-15.4-6.5-23.2-9.4-7.2-2.6-16.7-5.8-26.4-6.7-9.1-.8-17.5,2.2-26.3,5.4-1.6.6-3.2,1.2-4.8,1.7-4.1,1.4-8.1,2.8-12.2,4.2-44.3,15.3-90.1,30.9-132.8,56.7-16.1,9.7-31.8,21.5-47.2,33.2h3.1c14.6-11.2,29.5-22.2,44.6-31.3,42.5-25.7,88.3-41.3,132.6-56.6,4.1-1.4,8.1-2.8,12.2-4.2,1.6-.6,3.2-1.2,4.8-1.7,8.7-3.2,17-6.1,25.9-5.3,9.6.9,19,4,26.2,6.6,7.7,2.8,15.6,6.2,23.1,9.4,11.4,4.8,23.1,9.8,34.8,13.3,33.4,9.9,68.7,9.9,102.1-.2,17.4-5.3,30.2-12.4,41.2-22.9v-2.5c-11,10.8-23.9,18.1-41.5,23.4-33.2,10-68.3,10.1-101.5.2Z"/>
  <path class="cls-69" d="M815.8,471.9c-13.7-3.7-27.3-9.7-40.4-15.5-5.8-2.5-11.7-5.1-17.6-7.5-7.8-3.2-17.1-6.7-26.6-8.3-9.6-1.6-18.4.9-27.7,3.6-1,.3-2.1.6-3.1.9-50.6,14.3-99.7,29.5-145,57.2-10.8,6.7-21.5,14.3-31.9,22.3h3.1c9.7-7.3,19.5-14.2,29.4-20.4,45-27.8,94.1-42.8,144.7-57.1,1-.3,2.1-.6,3.1-.9,9.2-2.6,17.9-5.2,27.3-3.6,9.4,1.6,18.6,5,26.4,8.2,5.9,2.4,11.8,5,17.6,7.5,13.2,5.8,26.9,11.8,40.6,15.5,32.5,8.8,67.8,6.6,101.8-6.3,16.9-6.4,29.8-14.2,40.2-24.5v-2.6c-10.5,10.5-23.5,18.5-40.5,25-33.8,12.9-68.9,15.1-101.2,6.3v.2Z"/>
  <path class="cls-49" d="M97.5,522.8c22.8,1.5,47.1-1.9,72.4-10.2,26.4-8.7,52.6-21.6,78-34l4.5-2.2c3.8-1.9,7.7-4.1,11.9-6.4,12.4-7.1,25.3-14.4,36.8-13.1,7.7.8,12.2,6.8,14.8,19.4,2,9.9,2.9,20.3,3.9,30.3.5,6,1.1,12.1,1.9,18.2h1.5c-.8-6.1-1.4-12.3-1.9-18.4-.9-10.2-1.9-20.7-3.9-30.6-2.7-13.6-7.7-20-16.1-20.9-11.9-1.3-24.9,6.1-37.4,13.3-4.1,2.3-8,4.6-11.8,6.4l-4.5,2.2c-25.4,12.5-51.6,25.4-77.9,34-25.2,8.3-49.3,11.7-72,10.2-18.1-1.2-37.6-5.6-61.6-13.6-11.6-3.9-23.7-8.2-36-13v2.2c12.3,4.8,24.3,9.1,35.7,12.9,24.1,8.1,43.7,12.5,61.9,13.7l-.2-.4Z"/>
  <path class="cls-77" d="M817.1,491.4c-15.6-3.8-30.9-10.8-45.9-17.5-4-1.8-8.2-3.7-12.3-5.5-8.5-3.7-17.6-7.5-26.8-9.7-10.3-2.5-19.7-.4-29.7,1.8l-.9.2c-47.5,10.3-97.8,23.9-144.9,53.2-5.3,3.3-10.6,6.9-15.8,10.8h3.3c4.4-3.1,8.8-6.1,13.1-8.8,46.8-29.3,97.1-42.7,144.5-53l.9-.2c9.9-2.1,19.2-4.2,29.2-1.8,9.1,2.2,18.1,5.9,26.6,9.6,4.1,1.8,8.2,3.7,12.3,5.5,15,6.8,30.4,13.8,46.1,17.6,31.9,7.7,67.1,3.4,101.6-12.5,16.3-7.5,28.9-15.9,39.1-26.3v-2.6c-10.4,10.6-23.1,19.2-39.6,26.9-34.3,15.8-69.2,20.1-100.9,12.4h0Z"/>
  <path class="cls-20" d="M233.2,498.4c3-1.5,6.1-3,9.1-4.4,4.2-2.1,8.6-4.5,13.2-7,13.6-7.5,27.6-15.3,40.3-14.5,8.3.5,12.9,6.3,15.4,19.2,1.4,7.5,2,15.7,2.6,23.7.2,3.1.5,6.3.7,9.4h1.5c-.3-3.2-.5-6.5-.8-9.7-.6-8-1.2-16.4-2.6-24-2.6-13.8-7.8-20.1-16.7-20.7-13.1-.8-27.3,7.1-40.9,14.7-4.6,2.5-8.9,4.9-13.1,7s-6.1,3-9.1,4.4c-20.6,10-41.7,20.4-62.9,28.3h5.7c19.5-7.6,38.8-17.1,57.7-26.3h0Z"/>
  <path class="cls-70" d="M35.5,524.6h5.6c-3.1-1.2-6.4-2.5-9.7-3.9-10.4-4.3-20.9-8.7-31.3-13.4v2.2c10.4,4.6,20.8,9,30.9,13.2,1.5.6,3.1,1.3,4.6,1.9h0Z"/>
  <path class="cls-17" d="M0,520.8v2.2c1,.5,1.9,1,2.9,1.6h4.2c-2.4-1.3-4.7-2.5-7-3.8h0Z"/>
  <path class="cls-79" d="M230,512.2c4.6-2.2,9.2-4.7,14.1-7.4,14.7-8,29.9-16.4,44-16,9,.2,14,5.8,16.7,18.7,1.1,5.4,1.8,11.3,2.4,17.1h1.5c-.6-6-1.3-12-2.5-17.7-2.9-13.8-8.4-20-18.1-20.2-14.4-.3-29.7,8.1-44.5,16.2-4.9,2.7-9.5,5.2-14.1,7.4-4,1.9-8,3.9-12,5.8-5.8,2.8-11.7,5.7-17.7,8.5h4.6c4.5-2.2,9-4.4,13.5-6.6,4-1.9,8-3.9,12-5.8h0Z"/>
  <path class="cls-84" d="M818.3,511c-17.4-3.7-34.4-11.7-51-19.5-2.2-1-4.4-2.1-6.6-3.1-9.3-4.3-18.5-8.5-27.9-11.3-10.1-3-19.1-2-29.9-.3-28,4.2-52,9.6-73.7,16.5-25.6,8.1-48.2,18.4-69.2,31.2h3.7c37.8-22.7,81.1-36.8,139.3-45.6,10.7-1.6,19.7-2.6,29.5.3,9.4,2.8,18.5,6.9,27.8,11.2,2.2,1,4.4,2.1,6.6,3.1,16.6,7.8,33.7,15.9,51.2,19.6,31.5,6.7,66.6.3,101.3-18.6,15.2-8.2,27.7-17.5,38.1-28.4v-2.6c-10.5,11.1-23.2,20.6-38.6,29-34.5,18.7-69.3,25.1-100.6,18.4h0Z"/>
  <path class="cls-12" d="M278.6,505.9c9.8-.2,15.5,5.4,18.6,18.1,0,.2,0,.4,0,.6h1.5c0-.4-.2-.9-.3-1.3-3.3-13.5-9.7-19.7-20-19.5-15.7.3-32.2,9.2-48.1,17.7-2,1-3.9,2.1-5.8,3.1h4.2c.7-.4,1.4-.7,2-1.1,15.9-8.5,32.2-17.3,47.7-17.6h0Z"/>
  <path class="cls-48" d="M882.6,524.6h5.9c10.6-4.2,21.4-9.6,32-16.3,13.9-8.7,26.4-19.2,37.1-31.2v-2.6c-10.9,12.5-23.4,23.1-37.6,31.9-12.5,7.8-25.1,13.9-37.3,18.2h0Z"/>
  <path class="cls-78" d="M704.3,495.8c11-.9,19.8-.8,29.3,2.5s18.9,7.9,28,12.3l1.1.6c9.8,4.7,19.7,9.5,29.8,13.5h5.7c-11.9-4.4-23.5-10-34.9-15.5l-1.1-.6c-9.1-4.4-18.6-9-28.1-12.3-9.7-3.4-18.6-3.5-29.7-2.6-27.2,2.3-51.3,6.5-73.8,13-16.7,4.8-32.1,10.7-46.8,18h4.8c33.3-15.6,71.6-25.1,115.9-28.9h0Z"/>
  <path class="cls-83" d="M957.6,489.3v-2.6c-10.6,12.8-22.8,24-36.7,33.7-2.1,1.4-4.1,2.8-6.2,4.2h3.5c1.1-.8,2.2-1.5,3.3-2.3,13.5-9.5,25.6-20.6,36-33h0Z"/>
  <path class="cls-82" d="M734.6,515.4c-10.7-4.2-20.3-4.6-29.1-4.5-32.2.6-61.5,5.1-88.4,13.7h7.1c24.9-7.2,51.8-11.1,81.3-11.6,8.7-.2,18.2.3,28.7,4.4,5.4,2.1,10.8,4.6,16.2,7.2h4.5c-6.7-3.3-13.5-6.6-20.3-9.2h0Z"/>
  <path class="cls-16" d="M267.6,521.5c-5.4.3-10.8,1.4-16.3,3.1h8.5c2.6-.5,5.2-.9,7.8-1,3-.2,5.7.2,8.1,1h4.5c-3.5-2.4-7.6-3.4-12.7-3.1h0Z"/>
  <path class="cls-52" d="M957.6,501.8v-2.9c-7.3,9.3-15.3,17.9-24,25.8h2.7c7.7-7.1,14.8-14.8,21.3-22.9h0Z"/>
  <path class="cls-53" d="M957.6,514.4v-2.9c-3.4,4.5-6.9,8.9-10.6,13.1h2.3c2.8-3.3,5.6-6.7,8.3-10.2Z"/>
  <path class="cls-68" d="M957.6,524.3s0,.2-.2.3h.2v-.3Z"/>
</svg>